<?xml version="1.0" encoding="UTF-8"?>
<svg version="1.1" xmlns="http://www.w3.org/2000/svg" width="500" height="500">
<path d="M0 0 C0.80759766 -0.01224609 1.61519531 -0.02449219 2.44726562 -0.03710938 C7.81886061 -0.0500947 12.42809723 0.56700743 17.5625 2.1875 C18.5525 3.1775 18.5525 3.1775 19.5625 4.1875 C21.63298621 4.68224325 23.71964708 5.11057646 25.8125 5.5 C31.5897575 6.74707321 34.39419084 8.12339857 38.5625 12.1875 C39.366875 12.496875 40.17125 12.80625 41 13.125 C49.24993991 16.54570679 56.85227547 25.42827287 60.5625 33.3125 C61.49694713 35.33273583 61.49694713 35.33273583 63.5 36.875 C66.48398904 40.22068468 67.28842576 43.9557534 68.5625 48.1875 C68.93375 49.115625 69.305 50.04375 69.6875 51 C70.5625 53.1875 70.5625 53.1875 71.0625 55.25 C71.5003478 57.24301169 71.5003478 57.24301169 72.5625 59.125 C77.86598624 70.06344037 74.80423422 86.16560365 71.5625 97.1875 C71.00192046 99.919213 70.71518677 102.38824259 70.5625 105.1875 C71.5525 106.6725 71.5525 106.6725 72.5625 108.1875 C72.871875 108.75726563 73.18125 109.32703125 73.5 109.9140625 C76.54191052 115.34924086 80.44965521 119.07387642 85.16015625 123.109375 C87.40256589 125.04915049 89.47369766 127.08572373 91.5625 129.1875 C92.5908658 130.07809431 93.6311654 130.95526511 94.6875 131.8125 C97.5625 134.1875 97.5625 134.1875 99.5625 136.1875 C101.54939731 137.54028115 103.54995218 138.87318305 105.5625 140.1875 C106.5525 140.8475 107.5425 141.5075 108.5625 142.1875 C111.76629124 142.42996783 111.76629124 142.42996783 115.25 142.3125 C116.42949219 142.29445312 117.60898437 142.27640625 118.82421875 142.2578125 C119.72785156 142.23460937 120.63148438 142.21140625 121.5625 142.1875 C121.5625 141.5275 121.5625 140.8675 121.5625 140.1875 C132.53737143 136.99481013 145.62450032 136.67171439 156.5625 140.1875 C156.8925 140.8475 157.2225 141.5075 157.5625 142.1875 C159.29265349 142.71583546 161.04846083 143.16158201 162.8125 143.5625 C167.22833621 144.69373503 170.36503001 145.76951484 173.5625 149.1875 C173.5625 149.8475 173.5625 150.5075 173.5625 151.1875 C174.16175293 151.29835937 174.76100586 151.40921875 175.37841797 151.5234375 C178.99561241 152.62323281 181.19272589 155.47860659 183.6875 158.1875 C184.23011475 158.77112305 184.77272949 159.35474609 185.33178711 159.95605469 C189.41511966 164.55667253 190.84392957 168.02832488 191.5625 174.1875 C192.5525 174.5175 193.5425 174.8475 194.5625 175.1875 C199.45771617 184.86332861 199.2652751 195.63435263 198.5625 206.1875 C198.2325 206.5175 197.9025 206.8475 197.5625 207.1875 C197.3320701 209.16261345 197.1019888 211.13776938 196.875 213.11328125 C196.48517563 215.70074049 195.76001457 217.86291289 194.5625 220.1875 C193.9025 220.5175 193.2425 220.8475 192.5625 221.1875 C191.83178667 222.80591584 191.1747162 224.45814574 190.5625 226.125 C188.77662301 230.97337699 188.77662301 230.97337699 186.5625 233.1875 C185.62066025 234.30886932 184.68361765 235.43427603 183.75 236.5625 C181.2332156 239.50380225 178.68911714 241.87975877 175.5625 244.1875 C174.98886719 244.6721875 174.41523438 245.156875 173.82421875 245.65625 C169.37468493 249.29434579 165.43798199 251.09845872 159.88671875 252.53515625 C156.90348325 253.37246773 154.31378206 254.77986732 151.5625 256.1875 C142.22420556 258.63085303 131.25949619 258.29880729 122.5625 254.1875 C120.23376625 253.50494011 117.90067209 252.83699225 115.5625 252.1875 C114.0465625 251.630625 114.0465625 251.630625 112.5 251.0625 C108.0922219 249.74954482 105.0119011 249.49574039 100.8125 251.5 C98.34177555 253.15803155 98.34177555 253.15803155 96.5625 256.1875 C95.9025 256.1875 95.2425 256.1875 94.5625 256.1875 C94.5625 256.8475 94.5625 257.5075 94.5625 258.1875 C93.22916667 259.52083333 91.89583333 260.85416667 90.5625 262.1875 C90.2325 263.1775 89.9025 264.1675 89.5625 265.1875 C87 266.375 87 266.375 84.5625 267.1875 C84.5625 267.8475 84.5625 268.5075 84.5625 269.1875 C83.9025 269.1875 83.2425 269.1875 82.5625 269.1875 C82.335625 270.074375 82.10875 270.96125 81.875 271.875 C80.5625 275.1875 80.5625 275.1875 78 277.5 C74.63359517 281.21167712 74.38529374 284.27405377 74.5625 289.1875 C74.96920874 291.42838541 75.51083746 293.60525601 76.0703125 295.8125 C77.98873201 305.06963542 76.69924428 315.72719609 71.5 323.75 C69.5625 326.1875 69.5625 326.1875 67.5625 328.1875 C67.15773438 328.72246094 66.75296875 329.25742187 66.3359375 329.80859375 C62.53757953 334.74221513 59.44759943 336.29229849 53.5625 338.1875 C53.2325 338.8475 52.9025 339.5075 52.5625 340.1875 C47.96649718 342.1642003 43.62808298 342.53742866 38.6875 342.5 C37.63175781 342.49806641 37.63175781 342.49806641 36.5546875 342.49609375 C31.23484273 342.39757811 27.2896694 341.5510847 22.5625 339.1875 C22.5625 338.5275 22.5625 337.8675 22.5625 337.1875 C21.99660156 337.07792969 21.43070312 336.96835937 20.84765625 336.85546875 C20.11417969 336.69691406 19.38070312 336.53835938 18.625 336.375 C17.52865234 336.14876953 17.52865234 336.14876953 16.41015625 335.91796875 C15.80042969 335.67691406 15.19070313 335.43585938 14.5625 335.1875 C14.0675 333.7025 14.0675 333.7025 13.5625 332.1875 C12.9025 331.8575 12.2425 331.5275 11.5625 331.1875 C9 329.5625 9 329.5625 6.5625 327.1875 C5.75 323.4375 5.75 323.4375 5.5625 320.1875 C4.5725 320.1875 3.5825 320.1875 2.5625 320.1875 C-1.73619398 309.61987729 -1.73619398 299.75512271 2.5625 289.1875 C3.2225 289.1875 3.8825 289.1875 4.5625 289.1875 C4.68625 288.23875 4.81 287.29 4.9375 286.3125 C5.5625 283.1875 5.5625 283.1875 7.5625 281.1875 C8.34625 280.176875 9.13 279.16625 9.9375 278.125 C13.23591772 274.4339135 13.23591772 274.4339135 16.5625 274.1875 C16.5625 273.5275 16.5625 272.8675 16.5625 272.1875 C18.13671875 270.93359375 18.13671875 270.93359375 20.25 269.625 C20.93449219 269.19058594 21.61898437 268.75617188 22.32421875 268.30859375 C27.23390267 265.8494676 32.41762449 265.96180124 37.8125 265.9375 C38.57030762 265.93355225 39.32811523 265.92960449 40.10888672 265.92553711 C45.0923192 265.97743672 49.07052482 266.70320993 53.71875 268.5625 C57.02300494 269.68258642 59.29006219 269.2177119 62.5625 268.1875 C65.87494441 265.98819883 68.80939349 263.73151373 70.57421875 260.11328125 C71.5625 258.1875 71.5625 258.1875 74.5625 256.1875 C75.46577244 254.54822779 76.36737277 252.90799685 77.2578125 251.26171875 C80.20541546 246.57555956 84.2002878 242.35555777 88.2734375 238.6171875 C89.86003728 237.11022814 89.86003728 237.11022814 90.125 234.0625 C89.55296997 230.1218487 89.03952512 229.20602814 86.75 226.1875 C77.76504383 213.49784627 80.35181317 195.98371651 81.98828125 181.390625 C82.53398109 178.34658509 83.31346545 175.78518292 84.5 172.9375 C84.83902344 172.10734375 85.17804688 171.2771875 85.52734375 170.421875 C86.5625 168.1875 86.5625 168.1875 88.5625 165.1875 C89.61272637 159.02751843 89.12822305 154.31379982 85.5625 149.125 C85.005625 148.41214844 84.44875 147.69929687 83.875 146.96484375 C82.5625 145.1875 82.5625 145.1875 82.5625 143.1875 C81.9953125 142.93871094 81.428125 142.68992188 80.84375 142.43359375 C78.2134121 140.99681671 76.26732065 139.27737789 74.0625 137.25 C68.61945119 132.26364535 65.18462281 129.41502605 57.5625 129.1875 C52.82817483 129.37329232 52.82817483 129.37329232 48.875 131.625 C48.441875 132.140625 48.00875 132.65625 47.5625 133.1875 C45.625 134.25 45.625 134.25 43.5625 135.1875 C40.65521155 136.51926404 38.47818639 138.04305975 36.0625 140.125 C31.70999107 143.50662792 27.35021008 144.50304096 22.00390625 145.546875 C21.19824219 145.75828125 20.39257812 145.9696875 19.5625 146.1875 C19.2325 146.8475 18.9025 147.5075 18.5625 148.1875 C7.0368993 152.16015386 -11.30211178 152.35242475 -22.4375 147.1875 C-22.7675 146.5275 -23.0975 145.8675 -23.4375 145.1875 C-25.58847059 144.64517912 -25.58847059 144.64517912 -28.125 144.3125 C-32.85405266 143.45760669 -35.76470539 142.28037967 -39.4375 139.1875 C-39.4375 138.5275 -39.4375 137.8675 -39.4375 137.1875 C-40.5203125 136.7853125 -40.5203125 136.7853125 -41.625 136.375 C-47.27997601 133.98734346 -50.77832262 130.97847687 -54.5625 126.1875 C-57.71904193 122.20498816 -57.71904193 122.20498816 -61.16796875 118.48046875 C-62.96602901 116.64921353 -63.59698895 114.57972375 -64.4375 112.1875 C-65.0975 112.1875 -65.7575 112.1875 -66.4375 112.1875 C-69.31956388 106.79929361 -69.31956388 106.79929361 -69.875 103.91796875 C-70.39398344 101.05869535 -70.39398344 101.05869535 -71.62890625 97.9375 C-77.90519591 80.77157957 -76.96748082 64.86302227 -70.15698242 48.0234375 C-69.4874716 46.3150149 -68.92452056 44.56588368 -68.37109375 42.81640625 C-67.28316869 39.75291852 -65.74498932 38.42055419 -63.4375 36.1875 C-63.09407551 34.85673011 -62.76130126 33.52318021 -62.4375 32.1875 C-59.78404517 28.49161648 -56.69205014 25.35640408 -53.4375 22.1875 C-52.7775 21.5275 -52.1175 20.8675 -51.4375 20.1875 C-50.30360971 19.13284542 -49.15657608 18.0922258 -48 17.0625 C-47.40316406 16.52367188 -46.80632812 15.98484375 -46.19140625 15.4296875 C-44.4375 14.1875 -44.4375 14.1875 -41.4375 14.1875 C-41.1075 13.5275 -40.7775 12.8675 -40.4375 12.1875 C-39.4475 12.1875 -38.4575 12.1875 -37.4375 12.1875 C-37.19257813 11.56230469 -36.94765625 10.93710937 -36.6953125 10.29296875 C-34.76877712 7.06811604 -32.36108189 6.81559261 -28.8984375 5.7734375 C-26.56699043 5.21833105 -24.31886163 4.87431223 -21.9375 4.625 C-20.7825 4.480625 -19.6275 4.33625 -18.4375 4.1875 C-18.1075 3.5275 -17.7775 2.8675 -17.4375 2.1875 C-14.03602288 -1.21397712 -4.51959355 0.00358983 0 0 Z M8.5625 23.1875 C8.5625 23.5175 8.5625 23.8475 8.5625 24.1875 C10.2125 24.1875 11.8625 24.1875 13.5625 24.1875 C13.5625 23.8575 13.5625 23.5275 13.5625 23.1875 C11.9125 23.1875 10.2625 23.1875 8.5625 23.1875 Z M16.5625 23.1875 C20.5625 24.1875 20.5625 24.1875 20.5625 24.1875 Z M5.5625 25.1875 C5.2325 25.8475 4.9025 26.5075 4.5625 27.1875 C3.799375 27.435 3.03625 27.6825 2.25 27.9375 C-2.38708345 30.094283 -3.92722683 33.89966773 -5.75 38.5 C-6.94956338 44.93402178 -6.02034648 51.16085822 -3.4375 57.1875 C-2.06243901 59.06640434 -2.06243901 59.06640434 -0.4375 60.1875 C0.2225 60.1875 0.8825 60.1875 1.5625 60.1875 C1.5625 60.8475 1.5625 61.5075 1.5625 62.1875 C7.14805567 66.13024518 12.4199238 67.828247 19.18359375 66.85546875 C25.03930091 65.21125541 29.47551085 61.96620952 32.625 56.8125 C32.934375 55.94625 33.24375 55.08 33.5625 54.1875 C34.2225 54.1875 34.8825 54.1875 35.5625 54.1875 C35.75850577 51.95906512 35.94396569 49.72970107 36.125 47.5 C36.22941406 46.25863281 36.33382812 45.01726562 36.44140625 43.73828125 C36.54743841 40.62914467 36.33478525 38.17939028 35.5625 35.1875 C34.5725 34.8575 33.5825 34.5275 32.5625 34.1875 C31.375 31.625 31.375 31.625 30.5625 29.1875 C29.5725 29.1875 28.5825 29.1875 27.5625 29.1875 C27.0675 28.1975 27.0675 28.1975 26.5625 27.1875 C24.32239737 26.27344903 24.32239737 26.27344903 21.6875 25.5625 C20.80320312 25.30210938 19.91890625 25.04171875 19.0078125 24.7734375 C14.46179268 23.68413563 10.11886365 24.45260264 5.5625 25.1875 Z M69.5625 94.1875 C70.5625 97.1875 70.5625 97.1875 70.5625 97.1875 Z M152.5625 173.1875 C149.84445757 177.55768587 150.47833381 181.32219221 151.5625 186.1875 C153.49520265 189.95627016 155.62655682 190.87364736 159.5625 192.1875 C162.32239419 192.46405683 162.32239419 192.46405683 165.125 192.375 C166.51912109 192.36533203 166.51912109 192.36533203 167.94140625 192.35546875 C171.35713687 192.19733171 171.35713687 192.19733171 174.5625 191.1875 C177.57916269 185.72877703 177.51239767 178.9090169 175.9921875 172.953125 C175.21832825 170.83725333 175.21832825 170.83725333 173.5625 168.1875 C165.3195056 165.4398352 158.08124002 166.17242523 152.5625 173.1875 Z M86.5625 170.1875 C87.5625 172.1875 87.5625 172.1875 87.5625 172.1875 Z M196.5625 189.1875 C197.5625 192.1875 197.5625 192.1875 197.5625 192.1875 Z M147.5625 254.1875 C151.5625 255.1875 151.5625 255.1875 151.5625 255.1875 Z M56.5625 271.1875 C60.5625 272.1875 60.5625 272.1875 60.5625 272.1875 Z M29.40234375 279.32421875 C27.83791601 282.79506542 28.70158587 285.55936187 29.5625 289.1875 C30.77108552 290.6113996 30.77108552 290.6113996 34.3125 290.5 C37.49699782 290.44845237 38.64522985 290.142688 41.5625 288.5625 C43.7862625 286.31446291 43.7862625 286.31446291 44.125 283.25 C43.42520511 279.44000561 42.44879588 277.76997526 39.5625 275.1875 C34.76654519 274.06504249 32.35160693 275.37616357 29.40234375 279.32421875 Z " fill="#1FCCD2" transform="translate(277.4375,25.8125)"/>
<path d="M0 0 C1.18529297 -0.02900391 2.37058594 -0.05800781 3.59179688 -0.08789062 C10.22121776 -0.13622628 14.25439744 -0.09188979 19.3125 4.3125 C19.94534912 4.58690918 20.57819824 4.86131836 21.23022461 5.14404297 C26.03904543 7.84248551 28.72405419 13.16957868 30.3125 18.3125 C31.35261033 25.30766825 30.8440521 32.46059062 30.5625 39.5 C30.47153659 42.32252699 30.39136042 45.14454743 30.32879639 47.96784973 C30.28800375 49.71143925 30.23032705 51.45475315 30.15216064 53.19706726 C30.00505759 58.36336423 30.72370853 62.45374415 32.5602417 67.29219055 C33.3125 69.3125 33.3125 69.3125 33.77716064 71.50920105 C33.95382263 72.1042897 34.13048462 72.69937836 34.3125 73.3125 C36.52683941 74.39992694 36.52683941 74.39992694 39.3125 75.3125 C40.314021 75.98128174 41.31554199 76.65006348 42.34741211 77.33911133 C46.974199 80.01136442 51.39391647 79.89746857 56.62890625 79.88671875 C57.6035936 79.90088333 58.57828094 79.91504791 59.58250427 79.92964172 C62.68011629 79.97136662 65.77714726 79.9867438 68.875 80 C71.97615198 80.02914481 75.07716058 80.0637828 78.1782074 80.10249329 C80.10250857 80.12481346 82.02689782 80.14073369 83.9513092 80.14933777 C88.51619161 80.1859159 92.8205308 80.38311106 97.3125 81.3125 C97.3125 81.9725 97.3125 82.6325 97.3125 83.3125 C98.3025 83.3125 99.2925 83.3125 100.3125 83.3125 C100.9725 84.9625 101.6325 86.6125 102.3125 88.3125 C103.3025 88.3125 104.2925 88.3125 105.3125 88.3125 C109.9313973 94.66920025 109.88895059 100.17893016 109.75 107.875 C109.75708984 108.98552734 109.76417969 110.09605469 109.77148438 111.24023438 C109.69139858 121.5343399 109.69139858 121.5343399 106.3125 126.3125 C105.3225 126.9725 104.3325 127.6325 103.3125 128.3125 C102.85875 129.1375 102.405 129.9625 101.9375 130.8125 C99.95999706 133.85481221 98.76405907 134.34927421 95.3125 135.3125 C90.02449896 136.41730457 84.87275856 136.47952213 79.49609375 136.5234375 C77.57876725 136.55148893 75.66144964 136.58015325 73.74414062 136.609375 C70.73999116 136.65070635 67.73601088 136.68762221 64.73168945 136.71386719 C61.81948283 136.7414733 58.90801527 136.78731984 55.99609375 136.8359375 C55.10014999 136.83919037 54.20420624 136.84244324 53.28111267 136.84579468 C48.35806603 136.94275436 45.44303579 137.396087 41.3125 140.3125 C40.3225 140.3125 39.3325 140.3125 38.3125 140.3125 C37.6525 140.9725 36.9925 141.6325 36.3125 142.3125 C35.57 142.9003125 35.57 142.9003125 34.8125 143.5 C29.35799985 150.09085435 30.15781569 161.76045325 30.42578125 169.8984375 C30.45790862 171.5051785 30.4884588 173.11195167 30.51757812 174.71875 C30.56680382 177.20305583 30.62493469 179.68559792 30.71020508 182.16894531 C31.04990911 192.52632629 31.08758706 200.79819913 24.3125 209.3125 C18.35730093 215.56156956 11.79490779 217.71329332 3.40454102 218.15673828 C-5.57311875 218.25609578 -12.78057192 217.57657546 -19.6875 211.3125 C-20.63625 210.52875 -21.585 209.745 -22.5625 208.9375 C-28.299471 201.85065348 -29.24684501 195.7952677 -29.12109375 186.8046875 C-29.13069439 184.57942637 -29.1404651 182.35416596 -29.15039062 180.12890625 C-29.14177702 176.64851908 -29.12487821 173.16831537 -29.1027832 169.68798828 C-29.08826537 166.30985501 -29.10350752 162.93278296 -29.12109375 159.5546875 C-29.09637245 157.99825027 -29.09637245 157.99825027 -29.07115173 156.41036987 C-29.09900248 150.0931466 -29.09900248 150.0931466 -32.06933594 144.70117188 C-34.53523552 142.45141791 -36.41183885 141.1358909 -39.5 139.9375 C-40.29019531 139.62039063 -41.08039063 139.30328125 -41.89453125 138.9765625 C-42.48621094 138.75742187 -43.07789063 138.53828125 -43.6875 138.3125 C-43.6875 137.6525 -43.6875 136.9925 -43.6875 136.3125 C-44.97849609 136.31773682 -46.26949219 136.32297363 -47.59960938 136.32836914 C-52.41535746 136.34654702 -57.23110254 136.35797857 -62.046875 136.36743164 C-64.12630728 136.37244271 -66.20573607 136.37925335 -68.28515625 136.38793945 C-71.28386297 136.40014683 -74.28252286 136.40576071 -77.28125 136.41015625 C-78.20240601 136.41531754 -79.12356201 136.42047882 -80.07263184 136.42579651 C-94.31823406 136.42701879 -94.31823406 136.42701879 -98.375 133.125 C-99.138125 132.196875 -99.90125 131.26875 -100.6875 130.3125 C-101.595 129.405 -102.5025 128.4975 -103.4375 127.5625 C-106.38071763 123.31118565 -106.58664103 120.38426515 -106.6875 115.3125 C-106.72617188 114.136875 -106.76484375 112.96125 -106.8046875 111.75 C-107.14527485 92.97985255 -107.14527485 92.97985255 -103.17578125 88.671875 C-102.68464844 88.22328125 -102.19351563 87.7746875 -101.6875 87.3125 C-101.1925 86.3225 -101.1925 86.3225 -100.6875 85.3125 C-100.0275 85.3125 -99.3675 85.3125 -98.6875 85.3125 C-98.6875 84.6525 -98.6875 83.9925 -98.6875 83.3125 C-92.0105244 80.60994201 -86.22451018 79.91613082 -79.0625 80.01171875 C-77.03645506 80.00407973 -75.01041317 79.99559037 -72.984375 79.98632812 C-69.83113601 79.98853834 -66.67851428 80.0000784 -63.52539062 80.02758789 C-60.45380363 80.04840005 -57.38405137 80.03223233 -54.3125 80.01171875 C-53.38099121 80.03022385 -52.44948242 80.04872894 -51.48974609 80.0677948 C-44.32938763 79.98838 -40.24634749 77.67915834 -34.6875 73.3125 C-31.6875 71.3125 -31.6875 71.3125 -29.6875 70.3125 C-28.43838888 65.29141823 -28.5579506 60.25487876 -28.58984375 55.1171875 C-28.5912587 54.24732208 -28.59267365 53.37745667 -28.59413147 52.48123169 C-28.59970022 49.71661858 -28.61223443 46.95208831 -28.625 44.1875 C-28.63002017 42.32161577 -28.63458217 40.45573025 -28.63867188 38.58984375 C-28.64847052 34.48377155 -28.66265446 30.37774162 -28.68077087 26.271698 C-28.70165602 20.19094719 -28.12006183 15.46134274 -24.6875 10.3125 C-24.0275 10.3125 -23.3675 10.3125 -22.6875 10.3125 C-22.4090625 9.19875 -22.4090625 9.19875 -22.125 8.0625 C-20.07580798 4.14230656 -17.59756755 3.30307985 -13.6875 1.3125 C-11.04548506 -1.32951494 -3.54943742 0.02848666 0 0 Z M-4.6875 215.3125 C-4.6875 215.6425 -4.6875 215.9725 -4.6875 216.3125 C-0.7275 216.3125 3.2325 216.3125 7.3125 216.3125 C7.3125 215.9825 7.3125 215.6525 7.3125 215.3125 C3.3525 215.3125 -0.6075 215.3125 -4.6875 215.3125 Z " fill="#AFD358" transform="translate(181.6875,157.6875)"/>
<path d="M0 0 C2.46833917 3.70250875 2.679512 6.70451345 2 11 C0.125 14.5 0.125 14.5 -2 17 C-2.66 17 -3.32 17 -4 17 C-4 17.66 -4 18.32 -4 19 C-4.81984375 19.38671875 -5.6396875 19.7734375 -6.484375 20.171875 C-7.56203125 20.69265625 -8.6396875 21.2134375 -9.75 21.75 C-10.81734375 22.26046875 -11.8846875 22.7709375 -12.984375 23.296875 C-15.88339265 24.93414403 -17.75422312 26.57798503 -20 29 C-22.125 30.3125 -22.125 30.3125 -24 31 C-24.66 30.67 -25.32 30.34 -26 30 C-26 30.66 -26 31.32 -26 32 C-28.40294331 34.12832122 -30.73166535 35.85601556 -33.5625 37.375 C-36.220572 38.91062093 -36.220572 38.91062093 -37.875 41.9375 C-39.89935775 44.85495675 -40.65850466 45.57433198 -43.625 47.125 C-47.04794287 49.02663493 -47.59136015 49.59578702 -49 53 C-50.485 53.495 -50.485 53.495 -52 54 C-52.474375 54.969375 -52.94875 55.93875 -53.4375 56.9375 C-55.18589378 60.36435181 -55.78323532 60.39161766 -59 62 C-59.495 62.99 -59.99 63.98 -60.5 65 C-62 68 -62 68 -64.0625 69 C-65.0215625 69.495 -65.0215625 69.495 -66 70 C-66.268125 70.845625 -66.53625 71.69125 -66.8125 72.5625 C-67.99813242 75.99459386 -69.23273045 77.72785394 -71.5 80.5 C-74.30039017 83.94130421 -75.7359733 86.72175578 -77 91 C-77.639375 91.763125 -78.27875 92.52625 -78.9375 93.3125 C-81.25518968 96.33251989 -81.99878725 98.87095751 -83.078125 102.46875 C-84.14392884 105.39519443 -85.56939519 107.92861833 -87.125 110.625 C-89.53771631 114.88864819 -90.46585394 118.10366109 -91 123 C-92.18605315 126.39715677 -93.5901162 129.6907633 -95 133 C-101.04602646 147.25375217 -100.49773996 162.39664248 -100.44604492 177.60571289 C-100.437526 181.42583999 -100.46639161 185.24447252 -100.49804688 189.06445312 C-100.54433939 205.28770106 -99.3140176 218.8528331 -92.79296875 233.84375 C-92.00099558 235.9972928 -91.75608852 237.72177188 -91.625 240 C-91.26168631 244.5414211 -88.91706473 247.53274138 -86.48046875 251.27734375 C-84.84535612 254.28439784 -84.14663012 256.97180031 -83.4375 260.3125 C-82.35453876 265.35987294 -80.94642995 267.55952261 -77 271 C-76.690625 271.94875 -76.38125 272.8975 -76.0625 273.875 C-74.81149859 277.5544159 -72.96713248 279.50426084 -70.3828125 282.33203125 C-68.6839318 284.38124611 -67.95839428 286.53555756 -67 289 C-65.69481525 290.03647024 -64.36538653 291.04422943 -63 292 C-63 292.66 -63 293.32 -63 294 C-62.2884375 294.7115625 -62.2884375 294.7115625 -61.5625 295.4375 C-60 297 -60 297 -59 300 C-58.360625 300.309375 -57.72125 300.61875 -57.0625 300.9375 C-55 302 -55 302 -54.08203125 303.8828125 C-52.87901062 306.23673734 -51.68704456 307.31217666 -49.625 308.9375 C-46.64661165 311.38667058 -44.35787143 313.93476714 -42 317 C-39.16551831 320.04706782 -36.82162942 322.34396058 -33 324 C-30 326 -30 326 -29 329 C-27.09886385 329.96724471 -25.19259803 330.92617314 -23.2578125 331.82421875 C-20.88866548 333.0579787 -18.91525316 334.48197424 -16.8125 336.125 C-13.96687001 338.34570733 -11.43994764 339.82058938 -8 341 C-7.01 341.66 -6.02 342.32 -5 343 C-5 343.66 -5 344.32 -5 345 C-3.5459375 345.37125 -3.5459375 345.37125 -2.0625 345.75 C3.22083728 347.25952494 9.0684036 349.0684036 13 353 C15.19191208 353.54941628 17.40479504 354.01675452 19.625 354.4375 C25.03285517 355.52797285 29.92147372 356.86701896 35 359 C35 359.66 35 360.32 35 361 C35.83402344 361.06058594 36.66804687 361.12117188 37.52734375 361.18359375 C56.6039604 362.6039604 56.6039604 362.6039604 58 364 C60.92207096 364.24350591 63.822398 364.42751692 66.75 364.5625 C67.6174585 364.6035083 68.48491699 364.6445166 69.37866211 364.68676758 C81.8115452 365.24356707 93.66670681 364.75359128 106.00439453 363.23925781 C109.21911689 362.85383722 112.44070208 362.54866973 115.6640625 362.24609375 C116.43492187 362.16488281 117.20578125 362.08367187 118 362 C119.2375 361.8865625 120.475 361.773125 121.75 361.65625 C126.22247117 361.09004201 130.1828973 359.66938474 134.375 358.0625 C139.95822777 355.98730182 145.27553246 354.28359359 151.21484375 353.51953125 C153.40510222 353.08990764 153.40510222 353.08990764 155 350 C158.0867232 348.86759267 161.15988639 347.94249977 164.32617188 347.0703125 C169.14689432 345.62075798 171.58635605 343.60753423 175 340 C177.10546875 339.3671875 177.10546875 339.3671875 179 339 C180.71865225 337.70813316 180.71865225 337.70813316 182.3125 336.125 C185.61366912 333.14899958 188.90649516 331.74352984 193 330 C194.70586575 328.37347684 196.3777546 326.70993434 198 325 C199.32567199 324.31822584 200.65753688 323.64808564 202 323 C202.66 322.01 203.32 321.02 204 320 C204.66 320 205.32 320 206 320 C206.33 319.34 206.66 318.68 207 318 C208.4375 316.375 208.4375 316.375 210 315 C210.66 315 211.32 315 212 315 C212.37125 313.7934375 212.37125 313.7934375 212.75 312.5625 C213.1625 311.716875 213.575 310.87125 214 310 C215.33333333 309.66666667 216.66666667 309.33333333 218 309 C219.10636395 306.60931266 219.10636395 306.60931266 220 304 C221.5 302.1875 221.5 302.1875 223 301 C223.66 301 224.32 301 225 301 C225.103125 300.401875 225.20625 299.80375 225.3125 299.1875 C226.12517365 296.6017202 226.98937796 295.79519825 229 294 C231.68767578 291.56249975 231.68767578 291.56249975 234 289 C234 288.01 234 287.02 234 286 C234.66 285.01 235.32 284.02 236 283 C236.99 283 237.98 283 239 283 C239.309375 281.72125 239.61875 280.4425 239.9375 279.125 C240.47605244 276.89898325 240.9737 275.05260001 242 273 C242.66 273 243.32 273 244 273 C244.33 272.01 244.66 271.02 245 270 C247.598234 263.38631347 247.598234 263.38631347 249.625 261.4375 C251.71222956 259.25539636 251.6757862 256.91792424 252 254 C252.66 254 253.32 254 254 254 C254.19335938 253.25234375 254.38671875 252.5046875 254.5859375 251.734375 C254.97652344 250.25710938 254.97652344 250.25710938 255.375 248.75 C255.63023437 247.77546875 255.88546875 246.8009375 256.1484375 245.796875 C256.90223288 243.32110669 257.66948478 241.21413982 259 239 C261.7110077 237.64449615 263.91339169 237.83082793 266.9375 237.8125 C267.99839844 237.79832031 269.05929687 237.78414062 270.15234375 237.76953125 C273 238 273 238 276 240 C277.77443174 247.67544892 275.11941511 253.64038955 271.4609375 260.26171875 C269.73891164 263.48936614 268.89993729 266.47524562 268 270 C267.34 270.99 266.68 271.98 266 273 C265.34 273 264.68 273 264 273 C263.95875 273.804375 263.9175 274.60875 263.875 275.4375 C262.65770309 280.39363741 259.94554519 283.89811347 257 288 C255.0500132 290.73199639 255.0500132 290.73199639 254.1875 292.875 C253 295 253 295 250.5 297.4375 C247.89676599 299.77230999 247.89676599 299.77230999 247 302.5625 C245.69928583 305.73299079 243.64778556 306.89534994 241 309 C240.64830932 310.32860925 240.31229724 311.66158328 240 313 C239.38125 313.29003906 238.7625 313.58007812 238.125 313.87890625 C235.60116885 315.21041276 234.9278676 316.34160984 233.5625 318.8125 C229.97279441 324.83885423 225.7334603 328.39366322 219.671875 331.7890625 C217.68195643 332.98276074 217.68195643 332.98276074 217 336 C216.34 336 215.68 336 215 336 C214.67 336.99 214.34 337.98 214 339 C213.01 338.67 212.02 338.34 211 338 C210.731875 338.598125 210.46375 339.19625 210.1875 339.8125 C208.99012525 342.01819033 207.95521016 343.43583187 206 345 C205.01 345 204.02 345 203 345 C202.67 345.66 202.34 346.32 202 347 C197.6688614 351.61254026 194.34886348 353.74086272 188 354 C188 354.66 188 355.32 188 356 C187.34 356 186.68 356 186 356 C185.67 356.99 185.34 357.98 185 359 C182.14521674 360.90318884 180.58058692 361.4619099 177.3125 362.125 C176.50425781 362.29257812 175.69601562 362.46015625 174.86328125 362.6328125 C174.24839844 362.75398438 173.63351562 362.87515625 173 363 C173 363.66 173 364.32 173 365 C167.83316146 367.77478366 162.98005579 369.73441245 157.296875 371.19140625 C154.92980449 371.89062736 154.92980449 371.89062736 153.0234375 373.51953125 C150.62040123 375.27773732 148.79612908 375.64541164 145.875 376.125 C142.31968238 376.7000665 142.31968238 376.7000665 139 378 C137.05754916 378.19106074 135.11454241 378.38036245 133.16796875 378.5234375 C130.85159186 378.9064456 130.85159186 378.9064456 128.5859375 380.5 C125.66142879 382.19639176 123.79014868 382.45166578 120.4375 382.625 C118.8596875 382.71974609 118.8596875 382.71974609 117.25 382.81640625 C116.1775 382.87699219 115.105 382.93757813 114 383 C111.97875837 383.18304612 109.95790659 383.37045614 107.9375 383.5625 C102.28244009 384.04060282 96.67182257 384.10048505 91 384 C90.67 384.66 90.34 385.32 90 386 C90 385.34 90 384.68 90 384 C84.72 384 79.44 384 74 384 C73.67 384.66 73.34 385.32 73 386 C73 385.34 73 384.68 73 384 C71.92878906 384.08378906 70.85757813 384.16757812 69.75390625 384.25390625 C68.35679134 384.35704896 66.95965476 384.45989843 65.5625 384.5625 C64.85544922 384.61857422 64.14839844 384.67464844 63.41992188 384.73242188 C61.61572163 384.86190993 59.80768048 384.93521608 58 385 C57.67 384.67 57.34 384.34 57 384 C55.52555556 383.81234344 54.04451445 383.67578972 52.5625 383.5625 C47.27983933 383.08988101 42.17637816 382.13439777 37 381 C37 380.34 37 379.68 37 379 C36.20335937 378.96261719 35.40671875 378.92523438 34.5859375 378.88671875 C28.6465148 378.51821442 24.22171304 378.05661251 19 375 C18.21625 374.855625 17.4325 374.71125 16.625 374.5625 C13.46151359 373.88461005 11.02299085 372.5303843 8.171875 371.03515625 C5.97526935 369.98821291 3.82748294 369.26475778 1.5 368.5625 C-2.51741216 367.30403354 -5.67323485 365.44800961 -9.16015625 363.12109375 C-11.12498472 361.82488672 -11.12498472 361.82488672 -14.125 361 C-16.86869752 360.04567043 -18.10745137 359.22773529 -20.25 357.375 C-22.64667259 354.78212671 -22.64667259 354.78212671 -25 355 C-25.66 354.34 -26.32 353.68 -27 353 C-28.19045994 352.26202257 -29.40061625 351.55521319 -30.625 350.875 C-31.73875 350.25625 -32.8525 349.6375 -34 349 C-34 348.34 -34 347.68 -34 347 C-34.86625 346.814375 -35.7325 346.62875 -36.625 346.4375 C-40.51772632 344.77948694 -42.02298739 342.96935015 -44.5078125 339.65625 C-46.18649863 337.79299628 -47.75961164 337.07736985 -50 336 C-50.639375 335.195625 -51.27875 334.39125 -51.9375 333.5625 C-54.11290094 330.85972913 -56.02374871 329.71134449 -59 328 C-61.3125 325.9375 -61.3125 325.9375 -63 324 C-63 323.34 -63 322.68 -63 322 C-63.928125 321.62875 -63.928125 321.62875 -64.875 321.25 C-67 320 -67 320 -67.875 318.1875 C-69.5215654 314.98584506 -72.25511218 313.27767287 -75 311 C-75.495 309.515 -75.495 309.515 -76 308 C-76.804375 307.360625 -77.60875 306.72125 -78.4375 306.0625 C-81.83753019 303.32589034 -82.64702602 301.05892195 -84 297 C-84.78375 296.2575 -85.5675 295.515 -86.375 294.75 C-89.31965166 291.66512684 -90.35598209 288.90454253 -92 285 C-92.83745718 283.90766455 -93.71346988 282.84383122 -94.625 281.8125 C-97 279 -97 279 -97.4375 277.16015625 C-98.19751785 274.2414766 -99.73477503 272.15108487 -101.375 269.625 C-104.89877041 263.7928004 -106.27222967 258.4350704 -107.296875 251.73828125 C-107.64492187 250.38283203 -107.64492187 250.38283203 -108 249 C-108.99 248.67 -109.98 248.34 -111 248 C-111.66015625 246.3203125 -111.66015625 246.3203125 -112.0625 244.125 C-112.21976563 243.31289063 -112.37703125 242.50078125 -112.5390625 241.6640625 C-112.84985458 239.86778963 -113.15706939 238.07089462 -113.4609375 236.2734375 C-114.22138066 231.84790765 -115.02657664 227.6650172 -116.5625 223.4375 C-118.90210438 216.84406947 -119.18297888 209.95319757 -119 203 C-119.66 202.67 -120.32 202.34 -121 202 C-121.14285714 194.57142857 -121.14285714 194.57142857 -120 191 C-120.66 191 -121.32 191 -122 191 C-122 184.07 -122 177.14 -122 170 C-121.34 170 -120.68 170 -120 170 C-120.33 169.34 -120.66 168.68 -121 168 C-121.57843872 161.50328429 -120.52737408 155.33395022 -119.1875 149 C-119.02185547 148.16210938 -118.85621094 147.32421875 -118.68554688 146.4609375 C-117.66764242 141.49817315 -116.35274553 136.7722234 -114.62817383 132.0078125 C-113.99437031 129.98200601 -113.69806204 128.10934687 -113.5 126 C-112.97460264 120.74602637 -111.73746093 115.21526268 -108.4375 111.0078125 C-106.79182618 108.70923548 -106.63131893 107.40653506 -106.375 104.625 C-105.3924364 98.78178991 -102.50320637 94.60216603 -99.18701172 89.82275391 C-97.17272049 86.91157039 -95.58637045 84.51822273 -95 81 C-94.67 80.34 -94.34 79.68 -94 79 C-93.34 79 -92.68 79 -92 79 C-91.5978125 77.6696875 -91.5978125 77.6696875 -91.1875 76.3125 C-90.0749365 73.2090334 -88.89804222 70.68889315 -87 68 C-86.34 68 -85.68 68 -85 68 C-85 67.01 -85 66.02 -85 65 C-84.34 65 -83.68 65 -83 65 C-82.731875 64.0925 -82.46375 63.185 -82.1875 62.25 C-81.09868368 59.27008166 -80.13608899 57.31409641 -78 55 C-77.34 55 -76.68 55 -76 55 C-76 54.34 -76 53.68 -76 53 C-75.34 53 -74.68 53 -74 53 C-73.95875 52.443125 -73.9175 51.88625 -73.875 51.3125 C-72.56280691 47.84456112 -69.83160043 46.31151056 -67 44 C-66.62875 43.2575 -66.2575 42.515 -65.875 41.75 C-65.58625 41.1725 -65.2975 40.595 -65 40 C-64.34 39.855625 -63.68 39.71125 -63 39.5625 C-62.34 39.376875 -61.68 39.19125 -61 39 C-59.84478498 36.52869082 -59.84478498 36.52869082 -59 34 C-58.34 33.67 -57.68 33.34 -57 33 C-55.97895449 32.02149805 -54.9793879 31.02019573 -54 30 C-53.34 29.34 -52.68 28.68 -52 28 C-51.5875 27.505 -51.175 27.01 -50.75 26.5 C-49 25 -49 25 -45.875 24.0625 C-44.92625 23.711875 -43.9775 23.36125 -43 23 C-42.03122943 20.96756452 -42.03122943 20.96756452 -42 19 C-41.01 19 -40.02 19 -39 19 C-38.67 18.34 -38.34 17.68 -38 17 C-36.67996195 16.01502631 -35.31837896 15.08518976 -33.9375 14.1875 C-33.12667969 13.65769531 -32.31585938 13.12789062 -31.48046875 12.58203125 C-29.24903029 11.15883034 -27.004141 9.76183341 -24.75 8.375 C-22.4346996 6.94914174 -20.43472331 5.53989106 -18.3125 3.8125 C-12.9397816 -0.39854956 -6.54184892 -2.18061631 0 0 Z M-102 95 C-101 97 -101 97 -101 97 Z M-95 126 C-94 128 -94 128 -94 128 Z M-119 153 C-119 154.65 -119 156.3 -119 158 C-118.67 158 -118.34 158 -118 158 C-118 156.35 -118 154.7 -118 153 C-118.33 153 -118.66 153 -119 153 Z M-120 159 C-119 161 -119 161 -119 161 Z M-120 166 C-119 168 -119 168 -119 168 Z M-95 233 C-94 235 -94 235 -94 235 Z M108 364 C108 364.33 108 364.66 108 365 C109.65 365 111.3 365 113 365 C113 364.67 113 364.34 113 364 C111.35 364 109.7 364 108 364 Z " fill="#B0D35A" transform="translate(159,77)"/>
<path d="M0 0 C6.5130826 1.76029259 11.45659116 6.21100149 16 11 C16.515625 11.515625 17.03125 12.03125 17.5625 12.5625 C23 18 23 18 25.4375 20.5 C27.89726615 23.01721776 27.89726615 23.01721776 30.5625 24.875 C33.10735434 27.09359096 34.40278558 29.30351796 35.96484375 32.26953125 C37.54956907 34.91871358 39.79944854 36.85587293 42 39 C43.02304948 40.65261839 44.02616054 42.31791365 45 44 C45.53625 44.495 46.0725 44.99 46.625 45.5 C48.50255181 47.54823833 48.72048502 49.27472894 49 52 C48.505 52.99 48.505 52.99 48 54 C47.34 54 46.68 54 46 54 C45.67 54.99 45.34 55.98 45 57 C42.73078464 57.13489391 40.4592933 57.23193995 38.1875 57.3125 C36.29064453 57.39951172 36.29064453 57.39951172 34.35546875 57.48828125 C31 57 31 57 29.05078125 54.60546875 C28 52 28 52 28 50 C27.01 49.67 26.02 49.34 25 49 C25 48.34 25 47.68 25 47 C24.071875 46.6596875 24.071875 46.6596875 23.125 46.3125 C20.3707902 44.61137042 20.17849539 42.94623846 19 40 C17.11683841 38.89163577 17.11683841 38.89163577 15 38 C12.75 36.0625 12.75 36.0625 11 34 C11 33.01 11 32.02 11 31 C10.401875 30.731875 9.80375 30.46375 9.1875 30.1875 C6.97398302 28.9858765 5.73331856 27.8026513 4 26 C3.113125 25.319375 2.22625 24.63875 1.3125 23.9375 C0.1678125 22.9784375 0.1678125 22.9784375 -1 22 C-1 21.34 -1 20.68 -1 20 C-1.61875 19.690625 -2.2375 19.38125 -2.875 19.0625 C-4.25 18.375 -5.625 17.6875 -7 17 C-7.62653784 8.03702815 -7.62653784 8.03702815 -5.1875 4 C-3 2 -3 2 0 0 Z " fill="#B2D460" transform="translate(364,97)"/>
<path d="M0 0 C2.6166883 0.9685145 5.0537896 0.87957628 7.8046875 0.66796875 C8.2996875 2.15296875 8.2996875 2.15296875 8.8046875 3.66796875 C2.0546875 4.66796875 2.0546875 4.66796875 -0.1953125 4.66796875 C-1.8203125 3.16796875 -1.8203125 3.16796875 -3.1953125 1.66796875 C-6.31316363 2.31441536 -6.31316363 2.31441536 -7.1953125 4.66796875 C-7.8553125 4.66796875 -8.5153125 4.66796875 -9.1953125 4.66796875 C-9.1953125 7.30796875 -9.1953125 9.94796875 -9.1953125 12.66796875 C-10.9028123 11.3873439 -12.56904846 10.05029318 -14.1953125 8.66796875 C-14.1953125 8.00796875 -14.1953125 7.34796875 -14.1953125 6.66796875 C-15.2884375 6.99796875 -16.3815625 7.32796875 -17.5078125 7.66796875 C-21.1953125 8.66796875 -21.1953125 8.66796875 -24.1953125 8.66796875 C-26.3828125 6.66796875 -26.3828125 6.66796875 -28.1953125 4.66796875 C-25.2253125 4.00796875 -22.2553125 3.34796875 -19.1953125 2.66796875 C-21.391875 2.85359375 -21.391875 2.85359375 -23.6328125 3.04296875 C-24.45652344 3.11257813 -25.28023438 3.1821875 -26.12890625 3.25390625 C-27.15177734 3.45886719 -27.15177734 3.45886719 -28.1953125 3.66796875 C-28.5253125 4.32796875 -28.8553125 4.98796875 -29.1953125 5.66796875 C-31.8353125 5.66796875 -34.4753125 5.66796875 -37.1953125 5.66796875 C-37.1953125 5.00796875 -37.1953125 4.34796875 -37.1953125 3.66796875 C-35.62109375 2.4140625 -35.62109375 2.4140625 -33.5078125 1.10546875 C-32.82332031 0.67105469 -32.13882812 0.23664063 -31.43359375 -0.2109375 C-22.79539897 -4.53757258 -8.77742508 -3.63733763 0 0 Z M2.8046875 2.66796875 C6.8046875 3.66796875 6.8046875 3.66796875 6.8046875 3.66796875 Z " fill="#34D2D4" transform="translate(331.1953125,294.33203125)"/>
<path d="M0 0 C1.08719244 3.26157733 1.29071481 5.58410104 1 9 C0.01 9.66 -0.98 10.32 -2 11 C-2.91117175 13.73351526 -3.13759934 15.40531406 -3.17358398 18.22436523 C-3.18707382 19.07212021 -3.20056366 19.91987518 -3.21446228 20.7933197 C-3.22490067 21.70586014 -3.23533905 22.61840057 -3.24609375 23.55859375 C-3.27902593 25.49023901 -3.31223768 27.42187953 -3.34570312 29.35351562 C-3.39315391 32.39946291 -3.43760155 35.44539006 -3.47680664 38.49145508 C-3.51651014 41.43070286 -3.56805169 44.36956068 -3.62109375 47.30859375 C-3.6295079 48.21910995 -3.63792206 49.12962616 -3.64659119 50.06773376 C-3.66323318 50.9186409 -3.67987518 51.76954803 -3.69702148 52.64624023 C-3.70732895 53.39219955 -3.71763641 54.13815887 -3.72825623 54.90672302 C-4.0364128 57.28049247 -4.82475638 58.93011258 -6 61 C-7.32342626 57.02972122 -7.12286975 53.23495832 -7.09765625 49.09765625 C-7.0962413 48.22354599 -7.09482635 47.34943573 -7.09336853 46.44883728 C-7.08777143 43.65335674 -7.07523173 40.85795627 -7.0625 38.0625 C-7.05748354 36.18294388 -7.05292088 34.30338649 -7.04882812 32.42382812 C-7.03899938 28.27565747 -7.02479219 24.12752805 -7.00672913 19.97938538 C-6.99995331 17.98626717 -7 15.99312972 -7 14 C-6.05029089 10.1333272 -5.21692839 7.32539258 -3 4 C-2.34 4 -1.68 4 -1 4 C-0.67 2.68 -0.34 1.36 0 0 Z " fill="#DAE8BE" transform="translate(160,164)"/>
<path d="M0 0 C0.33 0 0.66 0 1 0 C0.67 2.97 0.34 5.94 0 9 C-1.32 9.33 -2.64 9.66 -4 10 C-4 10.66 -4 11.32 -4 12 C-4.99 12.495 -4.99 12.495 -6 13 C-7.13102526 15.34038186 -7.13102526 15.34038186 -8.125 18.0625 C-8.65480469 19.44115234 -8.65480469 19.44115234 -9.1953125 20.84765625 C-9.46085937 21.55792969 -9.72640625 22.26820313 -10 23 C-10.66 23 -11.32 23 -12 23 C-12.33 24.98 -12.66 26.96 -13 29 C-13.66 29 -14.32 29 -15 29 C-15.33 30.98 -15.66 32.96 -16 35 C-17.485 35.495 -17.485 35.495 -19 36 C-19 37.32 -19 38.64 -19 40 C-19.66 40 -20.32 40 -21 40 C-21.495 38.515 -21.495 38.515 -22 37 C-20.8203125 34.87890625 -20.8203125 34.87890625 -19.125 32.5625 C-17.02567488 29.6771485 -15.69879704 27.50141923 -15 24 C-14.67 23.34 -14.34 22.68 -14 22 C-13.34 22 -12.68 22 -12 22 C-11.731875 21.113125 -11.46375 20.22625 -11.1875 19.3125 C-10.0749365 16.2090334 -8.89804222 13.68889315 -7 11 C-6.34 11 -5.68 11 -5 11 C-5 10.01 -5 9.02 -5 8 C-4.34 8 -3.68 8 -3 8 C-2.690625 7.05125 -2.38125 6.1025 -2.0625 5.125 C-1 2 -1 2 0 0 Z " fill="#D0E39A" transform="translate(79,134)"/>
<path d="M0 0 C1.32 0 2.64 0 4 0 C4 0.66 4 1.32 4 2 C3.0409375 2.433125 3.0409375 2.433125 2.0625 2.875 C-0.15206079 3.82823451 -0.15206079 3.82823451 -1 6 C-5.59600282 7.9767003 -9.93441702 8.34992866 -14.875 8.3125 C-15.57882812 8.31121094 -16.28265625 8.30992187 -17.0078125 8.30859375 C-22.32765727 8.21007811 -26.2728306 7.3635847 -31 5 C-31 4.34 -31 3.68 -31 3 C-28.69 3 -26.38 3 -24 3 C-24 3.33 -24 3.66 -24 4 C-21.24973583 4.05404449 -18.50053797 4.09369306 -15.75 4.125 C-14.58404297 4.15013672 -14.58404297 4.15013672 -13.39453125 4.17578125 C-9.34043965 4.21043161 -6.5522412 4.14826015 -3 2 C-2.01 2 -1.02 2 0 2 C0 1.34 0 0.68 0 0 Z " fill="#2ACCC3" transform="translate(331,360)"/>
<path d="M0 0 C4.79502783 0.09785771 7.12057841 0.70845828 10.5 4.1875 C11.07234375 4.81785156 11.6446875 5.44820312 12.234375 6.09765625 C13.96673009 7.96415388 15.7723149 9.52540176 17.75 11.125 C20.52361635 13.46758138 22.5330912 15.60777341 24 19 C23.67 19.99 23.34 20.98 23 22 C22.34 21.67 21.68 21.34 21 21 C21 20.34 21 19.68 21 19 C20.34 19 19.68 19 19 19 C18.67 17.68 18.34 16.36 18 15 C16.02 15 14.04 15 12 15 C11.67 12.69 11.34 10.38 11 8 C10.01 8 9.02 8 8 8 C7.79375 7.401875 7.5875 6.80375 7.375 6.1875 C5.49073918 3.18981233 3.18867916 2.38638224 0 1 C0 0.67 0 0.34 0 0 Z " fill="#47D9D7" transform="translate(313,38)"/>
<path d="M0 0 C1.33333333 0 2.66666667 0 4 0 C4 7.59 4 15.18 4 23 C3.34 23 2.68 23 2 23 C1.67 27.62 1.34 32.24 1 37 C0.67 37 0.34 37 0 37 C0 24.79 0 12.58 0 0 Z " fill="#A4B728" transform="translate(208,319)"/>
<path d="M0 0 C1.2065625 0.0309375 1.2065625 0.0309375 2.4375 0.0625 C2.9325 1.0525 2.9325 1.0525 3.4375 2.0625 C1.04289412 2.87877446 -1.35306526 3.69061645 -3.75 4.5 C-4.42353516 4.73009766 -5.09707031 4.96019531 -5.79101562 5.19726562 C-8.65814413 6.16229912 -11.44461267 7.04059744 -14.421875 7.59375 C-16.77913083 7.90823637 -16.77913083 7.90823637 -18.625 10.125 C-19.264375 10.764375 -19.90375 11.40375 -20.5625 12.0625 C-21.8825 12.0625 -23.2025 12.0625 -24.5625 12.0625 C-24.5625 12.7225 -24.5625 13.3825 -24.5625 14.0625 C-31.1875 18.0625 -31.1875 18.0625 -34.5625 18.0625 C-33.875 16.125 -33.875 16.125 -32.5625 14.0625 C-30 13.4375 -30 13.4375 -27.5625 13.0625 C-27.2325 12.4025 -26.9025 11.7425 -26.5625 11.0625 C-25.5725 11.0625 -24.5825 11.0625 -23.5625 11.0625 C-23.31757813 10.43730469 -23.07265625 9.81210937 -22.8203125 9.16796875 C-20.89377712 5.94311604 -18.48608189 5.69059261 -15.0234375 4.6484375 C-12.69199043 4.09333105 -10.44386163 3.74931223 -8.0625 3.5 C-6.9075 3.355625 -5.7525 3.21125 -4.5625 3.0625 C-4.2325 2.4025 -3.9025 1.7425 -3.5625 1.0625 C-2.5625 0.0625 -2.5625 0.0625 0 0 Z " fill="#3BC8CB" transform="translate(263.5625,26.9375)"/>
<path d="M0 0 C0.33 0.66 0.66 1.32 1 2 C-0.24716797 2.05607422 -0.24716797 2.05607422 -1.51953125 2.11328125 C-2.60621094 2.17902344 -3.69289063 2.24476563 -4.8125 2.3125 C-6.43091797 2.39951172 -6.43091797 2.39951172 -8.08203125 2.48828125 C-11.240364 3.04215219 -12.03834704 3.57897261 -14 6 C-15.92116405 7.05354158 -17.86551938 7.94172507 -19.875 8.8125 C-21.90236744 9.94544063 -23.33992892 11.14781919 -25.0625 12.6875 C-26.031875 13.450625 -27.00125 14.21375 -28 15 C-28.99 14.67 -29.98 14.34 -31 14 C-31 13.34 -31 12.68 -31 12 C-29.35 11.67 -27.7 11.34 -26 11 C-26 10.34 -26 9.68 -26 9 C-25.01 8.67 -24.02 8.34 -23 8 C-22.67 6.35 -22.34 4.7 -22 3 C-21.67 3.66 -21.34 4.32 -21 5 C-19.68 4.34 -18.36 3.68 -17 3 C-17 2.34 -17 1.68 -17 1 C-11.27959989 0.1679418 -5.77759884 -0.12036664 0 0 Z " fill="#3BCACA" transform="translate(339,153)"/>
<path d="M0 0 C0.99 0.33 1.98 0.66 3 1 C5.0040121 6.89259188 5.25579801 12.32230956 5.125 18.5 C5.11597656 19.32242188 5.10695313 20.14484375 5.09765625 20.9921875 C5.07436865 22.99492083 5.03850959 24.99750154 5 27 C4.01 27.33 3.02 27.66 2 28 C2 21.73 2 15.46 2 9 C1.34 9 0.68 9 0 9 C0 6.03 0 3.06 0 0 Z M3 10 C4 13 4 13 4 13 Z " fill="#3DD5D2" transform="translate(471,205)"/>
<path d="M0 0 C0.66 0.33 1.32 0.66 2 1 C-1.96879372 7.15847301 -4.49692015 9.74846008 -11 13 C-12.26356404 13.87659755 -13.51355636 14.77304689 -14.75 15.6875 C-18 18 -18 18 -20 18 C-20 18.66 -20 19.32 -20 20 C-25.2734375 23.22265625 -25.2734375 23.22265625 -27 24 C-27.66 23.67 -28.32 23.34 -29 23 C-25.30600426 18.8582472 -22.04403142 17.16172775 -17 15 C-15.29413425 13.37347684 -13.6222454 11.70993434 -12 10 C-10.67432801 9.31822584 -9.34246312 8.64808564 -8 8 C-7.34 7.01 -6.68 6.02 -6 5 C-5.34 5 -4.68 5 -4 5 C-3.67 4.34 -3.34 3.68 -3 3 C-2.01979625 1.9805881 -1.02196992 0.97753644 0 0 Z " fill="#D8EDAB" transform="translate(369,392)"/>
<path d="M0 0 C0.66 0 1.32 0 2 0 C2.83932352 17.48590661 2.83932352 17.48590661 -2 25 C-4.75 27.125 -4.75 27.125 -7 28 C-6.125 23.25 -6.125 23.25 -5 21 C-4.34 21 -3.68 21 -3 21 C-2.01 14.07 -1.02 7.14 0 0 Z " fill="#36C9C3" transform="translate(351,325)"/>
<path d="M0 0 C-0.33 1.32 -0.66 2.64 -1 4 C-10.65653116 6.38222795 -20.13325025 6.19538118 -30 6 C-30 5.34 -30 4.68 -30 4 C-25.05 4 -20.1 4 -15 4 C-15 3.34 -15 2.68 -15 2 C-9.92523206 0.73694665 -5.27203646 -0.27036084 0 0 Z " fill="#54D2D1" transform="translate(414,164)"/>
<path d="M0 0 C0.598125 0.226875 1.19625 0.45375 1.8125 0.6875 C1.8125 1.3475 1.8125 2.0075 1.8125 2.6875 C1.1525 2.6875 0.4925 2.6875 -0.1875 2.6875 C-0.5175 3.6775 -0.8475 4.6675 -1.1875 5.6875 C-4.04228326 7.59068884 -5.60691308 8.1494099 -8.875 8.8125 C-9.68324219 8.98007812 -10.49148438 9.14765625 -11.32421875 9.3203125 C-11.93910156 9.44148438 -12.55398438 9.56265625 -13.1875 9.6875 C-13.1875 10.3475 -13.1875 11.0075 -13.1875 11.6875 C-14.43485567 12.3384259 -15.68551832 12.98301669 -16.9375 13.625 C-17.63359375 13.98464844 -18.3296875 14.34429687 -19.046875 14.71484375 C-21.08974433 15.64308182 -22.99865376 16.21916578 -25.1875 16.6875 C-25.5175 15.6975 -25.8475 14.7075 -26.1875 13.6875 C-25.383125 13.56375 -24.57875 13.44 -23.75 13.3125 C-22.904375 13.10625 -22.05875 12.9 -21.1875 12.6875 C-20.8575 12.0275 -20.5275 11.3675 -20.1875 10.6875 C-19.1975 11.0175 -18.2075 11.3475 -17.1875 11.6875 C-16.65125 11.048125 -16.115 10.40875 -15.5625 9.75 C-13.1875 7.6875 -13.1875 7.6875 -10.0625 7.1875 C-9.11375 7.0225 -8.165 6.8575 -7.1875 6.6875 C-5.92922877 4.83767528 -5.92922877 4.83767528 -5.1875 2.6875 C-2.84083333 -0.40583333 -2.84083333 -0.40583333 0 0 Z " fill="#CFE493" transform="translate(345.1875,430.3125)"/>
<path d="M0 0 C0.66 0.66 1.32 1.32 2 2 C1.68404492 3.67004829 1.34820041 5.33637583 1 7 C1.37722015 9.72502965 1.37722015 9.72502965 2 12 C8.26079448 12.43177893 11.09075703 11.92739438 16 8 C16 9.65 16 11.3 16 13 C11.66730182 15.45617811 7.88831693 15.67965904 3 15 C0 13.5 0 13.5 -2 11 C-2.92778411 8.11807062 -3 6.12014519 -3 3 C-1.5625 1 -1.5625 1 0 0 Z " fill="#49D6C9" transform="translate(306,303)"/>
<path d="M0 0 C1.42754808 2.85509616 2.48665615 5.26316847 3.4375 8.25 C4.40784399 11.25461845 5.45546573 14.19260675 6.625 17.125 C8.01515198 20.74958474 8.59838696 24.14451482 9 28 C8.34 28.33 7.68 28.66 7 29 C6.49339844 27.82630859 6.49339844 27.82630859 5.9765625 26.62890625 C5.53054687 25.61699219 5.08453125 24.60507812 4.625 23.5625 C4.18414062 22.55316406 3.74328125 21.54382813 3.2890625 20.50390625 C2.24923714 17.87856453 2.24923714 17.87856453 0 17 C0 11.39 0 5.78 0 0 Z M5 18 C6 20 6 20 6 20 Z " fill="#C2D889" transform="translate(59,292)"/>
<path d="M0 0 C3.96 0 7.92 0 12 0 C12 0.66 12 1.32 12 2 C3.95073076 5.11584616 -3.43325085 5.33328851 -12 5 C-12 4.34 -12 3.68 -12 3 C-9.56612247 1.78306124 -7.58161154 1.68040104 -4.875 1.4375 C-3.96492188 1.35371094 -3.05484375 1.26992188 -2.1171875 1.18359375 C-1.06917969 1.09271484 -1.06917969 1.09271484 0 1 C0 0.67 0 0.34 0 0 Z M3 2 C7 3 7 3 7 3 Z " fill="#3EC8C5" transform="translate(422,278)"/>
<path d="M0 0 C2 2 2 2 2.1953125 5.4765625 C2.18201493 6.85950968 2.15816232 8.24238654 2.125 9.625 C2.11597656 10.33140625 2.10695312 11.0378125 2.09765625 11.765625 C2.07407603 13.51056098 2.03820461 15.25532295 2 17 C1.34 17 0.68 17 0 17 C0 23.27 0 29.54 0 36 C-0.33 36 -0.66 36 -1 36 C-1.02465098 31.03377651 -1.04283649 26.06758834 -1.05493164 21.10131836 C-1.0599719 19.41055684 -1.06680405 17.71979971 -1.07543945 16.02905273 C-1.08751857 13.60399293 -1.09323123 11.17899056 -1.09765625 8.75390625 C-1.10281754 7.99348526 -1.10797882 7.23306427 -1.11329651 6.44960022 C-1.11349238 4.6326743 -1.06197277 2.81586873 -1 1 C-0.67 0.67 -0.34 0.34 0 0 Z " fill="#B3CE67" transform="translate(210,174)"/>
<path d="M0 0 C7.625 0.875 7.625 0.875 11 2 C11.33 2.66 11.66 3.32 12 4 C13.64363134 4.72159424 15.31050386 5.39351421 17 6 C17 6.33 17 6.66 17 7 C16.21496094 6.9278125 15.42992187 6.855625 14.62109375 6.78125 C9.05906373 6.28988048 3.58368122 5.87309815 -2 6 C-2.33 5.01 -2.66 4.02 -3 3 C-2.34 3 -1.68 3 -1 3 C-0.67 2.01 -0.34 1.02 0 0 Z " fill="#2FCBCB" transform="translate(423,164)"/>
<path d="M0 0 C-0.66 1.65 -1.32 3.3 -2 5 C-3.216875 5.103125 -4.43375 5.20625 -5.6875 5.3125 C-9.47871152 5.78473863 -11.79719614 6.86479742 -15 9 C-19.17265858 11.01181753 -22.33315828 12.42425834 -27 12 C-26.67 11.01 -26.34 10.02 -26 9 C-25.30132812 8.89042969 -24.60265625 8.78085937 -23.8828125 8.66796875 C-22.97273438 8.50941406 -22.06265625 8.35085938 -21.125 8.1875 C-20.22007812 8.03667969 -19.31515625 7.88585937 -18.3828125 7.73046875 C-15.65587522 7.16948699 -15.65587522 7.16948699 -14 4 C-11.25 2.83203125 -11.25 2.83203125 -8 1.8125 C-6.9275 1.46832031 -5.855 1.12414062 -4.75 0.76953125 C-2 0 -2 0 0 0 Z " fill="#C7DF89" transform="translate(328,423)"/>
<path d="M0 0 C9.57 0 19.14 0 29 0 C24.0458671 4.9541329 20.26918612 4.18304964 13.5625 4.1875 C12.59505859 4.19974609 11.62761719 4.21199219 10.63085938 4.22460938 C9.23770508 4.22750977 9.23770508 4.22750977 7.81640625 4.23046875 C6.96506104 4.23457764 6.11371582 4.23868652 5.23657227 4.24291992 C3 4 3 4 0 2 C0 1.34 0 0.68 0 0 Z M8 2 C8 2.33 8 2.66 8 3 C11.96 3 15.92 3 20 3 C20 2.67 20 2.34 20 2 C16.04 2 12.08 2 8 2 Z " fill="#B6C162" transform="translate(169,371)"/>
<path d="M0 0 C1.35094757 0.0001133 1.35094757 0.0001133 2.72918701 0.00022888 C3.69286194 0.00539017 4.65653687 0.01055145 5.64941406 0.01586914 C6.64257629 0.01728409 7.63573853 0.01869904 8.65899658 0.02015686 C11.82770818 0.02574951 14.99634885 0.03830069 18.16503906 0.05102539 C20.31477762 0.05604134 22.4645173 0.06060408 24.61425781 0.06469727 C29.88120905 0.07571653 35.14811899 0.09244739 40.41503906 0.11352539 C40.41503906 0.44352539 40.41503906 0.77352539 40.41503906 1.11352539 C38.5004187 1.13539917 38.5004187 1.13539917 36.54711914 1.15771484 C31.80383527 1.21576079 27.06102299 1.29299368 22.31811523 1.37597656 C20.2667609 1.40919622 18.21531581 1.43723736 16.16381836 1.45996094 C13.21200957 1.49356109 10.2610302 1.54588015 7.30957031 1.60180664 C6.39480423 1.60819656 5.48003815 1.61458649 4.53755188 1.62117004 C-0.47309013 1.73642833 -3.34430351 2.23288058 -7.58496094 5.11352539 C-8.57496094 4.78352539 -9.56496094 4.45352539 -10.58496094 4.11352539 C-8.58496094 1.11352539 -8.58496094 1.11352539 -6.746521 0.43312073 C-4.46293422 0.09548325 -2.30868056 -0.00648506 0 0 Z " fill="#C8DE98" transform="translate(230.5849609375,292.886474609375)"/>
<path d="M0 0 C2.79173055 -0.02690104 5.58320348 -0.04679053 8.375 -0.0625 C9.56609375 -0.07506836 9.56609375 -0.07506836 10.78125 -0.08789062 C16.7734375 -0.11328125 16.7734375 -0.11328125 19 1 C19 1.99 19 2.98 19 4 C12.58311325 4.10349817 6.37305598 3.74507544 0 3 C0 2.01 0 1.02 0 0 Z " fill="#6BDCDF" transform="translate(270,26)"/>
<path d="M0 0 C3.21700528 0.34778436 4.59150148 0.50072404 6.6875 3.0625 C7.120625 3.701875 7.55375 4.34125 8 5 C8.66 5 9.32 5 10 5 C10 5.66 10 6.32 10 7 C9.34 7 8.68 7 8 7 C8.3403125 8.5159375 8.3403125 8.5159375 8.6875 10.0625 C9.06701625 14.8444048 8.14029854 16.80501486 6 21 C5.34 21 4.68 21 4 21 C4 20.01 4 19.02 4 18 C4.66 17.67 5.32 17.34 6 17 C6.79212925 10.79498752 4.9629482 7.80587833 1.3125 2.8203125 C0 1 0 1 0 0 Z " fill="#5AD3D2" transform="translate(361,246)"/>
<path d="M0 0 C2.475 0.495 2.475 0.495 5 1 C5 3.97 5 6.94 5 10 C5.66 10 6.32 10 7 10 C7.33 11.98 7.66 13.96 8 16 C7.34 15.67 6.68 15.34 6 15 C6 14.34 6 13.68 6 13 C5.01 13 4.02 13 3 13 C2.49242138 11.58603098 1.99425075 10.16868271 1.5 8.75 C1.08234375 7.56664062 1.08234375 7.56664062 0.65625 6.359375 C0 4 0 4 0 0 Z " fill="#45CFD2" transform="translate(277,333)"/>
<path d="M0 0 C1 2 1 2 0.2578125 4.2421875 C-0.11601562 5.11101562 -0.48984375 5.97984375 -0.875 6.875 C-2.16756631 9.90303996 -3.29606944 12.7798921 -4 16 C-4.99 16 -5.98 16 -7 16 C-7.66 17.98 -8.32 19.96 -9 22 C-9.66 22 -10.32 22 -11 22 C-9.125 14.25 -9.125 14.25 -8 12 C-7.34 12 -6.68 12 -6 12 C-5.67 11.01 -5.34 10.02 -5 9 C-2.29411765 2.29411765 -2.29411765 2.29411765 0 0 Z " fill="#D9E79D" transform="translate(409,338)"/>
<path d="M0 0 C3.63 0 7.26 0 11 0 C11.33 1.65 11.66 3.3 12 5 C6.25 5.125 6.25 5.125 4 4 C2.33380554 3.9603287 0.66608987 3.95615553 -1 4 C-0.67 2.68 -0.34 1.36 0 0 Z " fill="#B4CE62" transform="translate(249,442)"/>
<path d="M0 0 C0.99 0.33 1.98 0.66 3 1 C3.07347656 1.87011719 3.07347656 1.87011719 3.1484375 2.7578125 C3.59649405 7.43923092 4.298021 11.57485459 6 16 C5.34 16.33 4.68 16.66 4 17 C1.56918105 15.33992853 0.38687662 14.53053234 -1 12 C-1.1484257 7.92359406 -0.6476204 4.02037613 0 0 Z " fill="#43CAD2" transform="translate(269,67)"/>
<path d="M0 0 C4.32666979 1.4919551 5.05935697 4.04108822 7 8 C8.64740076 9.6857124 10.31066078 11.3563186 12 13 C12 13.66 12 14.32 12 15 C13.45833358 16.62514468 13.45833358 16.62514468 15 18 C14.67 18.99 14.34 19.98 14 21 C13.731875 20.360625 13.46375 19.72125 13.1875 19.0625 C12.11332248 16.66868314 12.11332248 16.66868314 9 16 C7.5 14.109375 7.5 14.109375 6 11.75 C5.48179688 10.93917969 4.96359375 10.12835938 4.4296875 9.29296875 C3.95789063 8.53628906 3.48609375 7.77960938 3 7 C2.38125 6.030625 1.7625 5.06125 1.125 4.0625 C0 2 0 2 0 0 Z " fill="#D3E49B" transform="translate(84,356)"/>
<path d="M0 0 C0.66 0 1.32 0 2 0 C2.0814222 2.22855574 2.13938079 4.45797655 2.1875 6.6875 C2.22230469 7.92886719 2.25710937 9.17023438 2.29296875 10.44921875 C1.9842473 14.19092269 1.24853724 16.03782121 -1 19 C-1.33 19 -1.66 19 -2 19 C-1.85870713 16.58299013 -1.71213513 14.16649571 -1.5625 11.75 C-1.52318359 11.06808594 -1.48386719 10.38617188 -1.44335938 9.68359375 C-1.23333528 6.35551959 -0.98065998 3.19744598 0 0 Z " fill="#A5CB64" transform="translate(210,342)"/>
<path d="M0 0 C3 0 3 0 4.6484375 1.609375 C5.21820313 2.31578125 5.78796875 3.0221875 6.375 3.75 C9.02920309 6.93167686 11.71139988 9.46307991 15 12 C15.99 13.485 15.99 13.485 17 15 C16.67 15.99 16.34 16.98 16 18 C15.401875 17.38125 14.80375 16.7625 14.1875 16.125 C11.99188856 13.86323046 11.99188856 13.86323046 9 12 C8.67 11.01 8.34 10.02 8 9 C5.46221127 6.26185953 3.1110644 4.07404293 0 2 C0 1.34 0 0.68 0 0 Z " fill="#C5E488" transform="translate(382,112)"/>
<path d="M0 0 C1.08719244 3.26157733 1.29071481 5.58410104 1 9 C0.01 9.66 -0.98 10.32 -2 11 C-2.33 11.99 -2.66 12.98 -3 14 C-4.32 14 -5.64 14 -7 14 C-5.99806563 10.20696275 -5.18975773 7.28463659 -3 4 C-2.34 4 -1.68 4 -1 4 C-0.67 2.68 -0.34 1.36 0 0 Z " fill="#C3D686" transform="translate(160,164)"/>
<path d="M0 0 C0.33 0.66 0.66 1.32 1 2 C6.94 1.505 6.94 1.505 13 1 C12.67 2.32 12.34 3.64 12 5 C10.20866022 5.05391993 8.41686101 5.09275571 6.625 5.125 C5.62726563 5.14820313 4.62953125 5.17140625 3.6015625 5.1953125 C1 5 1 5 -1 3 C-0.67 2.01 -0.34 1.02 0 0 Z " fill="#AFD152" transform="translate(260,442)"/>
<path d="M0 0 C1.13050781 0.26425781 2.26101562 0.52851563 3.42578125 0.80078125 C6.2987881 1.58182623 8.95575451 2.51382323 11.6875 3.6875 C8.6875 5.6875 8.6875 5.6875 6.25 5.4375 C3.85599136 4.73681455 1.90859995 3.79804998 -0.3125 2.6875 C-1.5809375 2.44 -1.5809375 2.44 -2.875 2.1875 C-5.3125 1.6875 -5.3125 1.6875 -8.3125 -0.3125 C-5.30423773 -1.81663114 -3.22488768 -0.77061302 0 0 Z " fill="#BBCB8A" transform="translate(178.3125,449.3125)"/>
<path d="M0 0 C1.0161846 1.32103998 2.01133494 2.65824027 3 4 C3.680625 4.9075 4.36125 5.815 5.0625 6.75 C7.36814517 10.61753384 8.2024078 13.57698874 9 18 C8.67 18.99 8.34 19.98 8 21 C7.75765625 20.443125 7.5153125 19.88625 7.265625 19.3125 C5.24733528 14.71700956 3.13710178 10.23229826 0.734375 5.82421875 C0 4 0 4 0 0 Z " fill="#D8E991" transform="translate(67,321)"/>
<path d="M0 0 C0.99 0.33 1.98 0.66 3 1 C2.85691406 1.63292969 2.71382812 2.26585937 2.56640625 2.91796875 C1.81074027 7.02983397 1.38028209 11.15690808 0.9375 15.3125 C0.84662109 16.14845703 0.75574219 16.98441406 0.66210938 17.84570312 C0.43940591 19.89691922 0.21943052 21.94843119 0 24 C-0.33 24 -0.66 24 -1 24 C-1.02901394 20.5625177 -1.04680335 17.12506688 -1.0625 13.6875 C-1.07087891 12.71103516 -1.07925781 11.73457031 -1.08789062 10.72851562 C-1.09111328 9.79072266 -1.09433594 8.85292969 -1.09765625 7.88671875 C-1.10551147 6.59060669 -1.10551147 6.59060669 -1.11352539 5.26831055 C-1 3 -1 3 0 0 Z " fill="#B6CF6C" transform="translate(210,308)"/>
<path d="M0 0 C1.32 0 2.64 0 4 0 C5.75 2 5.75 2 7 4 C8.32 3.67 9.64 3.34 11 3 C11 3.66 11 4.32 11 5 C10.34 5 9.68 5 9 5 C9 5.66 9 6.32 9 7 C9.99 7.33 10.98 7.66 12 8 C11.67 9.32 11.34 10.64 11 12 C10.54109375 11.52949219 10.0821875 11.05898437 9.609375 10.57421875 C5.77414308 6.66905586 5.77414308 6.66905586 1.5625 3.1875 C1.046875 2.795625 0.53125 2.40375 0 2 C0 1.34 0 0.68 0 0 Z " fill="#46CBC3" transform="translate(347,157)"/>
<path d="M0 0 C0.99 0.33 1.98 0.66 3 1 C3 1.66 3 2.32 3 3 C5.97 3.495 5.97 3.495 9 4 C8.01 4.495 8.01 4.495 7 5 C7.33 6.65 7.66 8.3 8 10 C2.25 8.25 2.25 8.25 0 6 C-0.125 2.875 -0.125 2.875 0 0 Z " fill="#ABD14E" transform="translate(387,137)"/>
<path d="M0 0 C1.32 0.33 2.64 0.66 4 1 C3.67 1.99 3.34 2.98 3 4 C2.01 3.67 1.02 3.34 0 3 C0 3.66 0 4.32 0 5 C-2.81046312 7.49818944 -5.56247993 9.4722133 -9 11 C-9 9.35 -9 7.7 -9 6 C-6.36 5.34 -3.72 4.68 -1 4 C-0.67 2.68 -0.34 1.36 0 0 Z " fill="#BFD669" transform="translate(133,104)"/>
<path d="M0 0 C1.32 0 2.64 0 4 0 C4 3.3 4 6.6 4 10 C2.68 10 1.36 10 0 10 C0 6.7 0 3.4 0 0 Z " fill="#16C7C1" transform="translate(202,96)"/>
<path d="M0 0 C0.928125 0.33 1.85625 0.66 2.8125 1 C5.92029291 2.14967004 5.92029291 2.14967004 9 2 C9.99 1.34 10.98 0.68 12 0 C11.50168276 3.68754757 10.89932357 5.60490662 8 8 C7.34 7.34 6.68 6.68 6 6 C4.01612292 4.96838392 2.01723344 3.96476382 0 3 C0 2.01 0 1.02 0 0 Z " fill="#C1D979" transform="translate(126,424)"/>
<path d="M0 0 C0.66 0 1.32 0 2 0 C2.66 0.99 3.32 1.98 4 3 C4.66 2.67 5.32 2.34 6 2 C6.37125 3.918125 6.37125 3.918125 6.75 5.875 C7.51990586 9.26747318 7.51990586 9.26747318 10.125 11.5 C10.74375 11.665 11.3625 11.83 12 12 C11.67 12.99 11.34 13.98 11 15 C10.52949219 14.45730469 10.05898437 13.91460937 9.57421875 13.35546875 C8.95160156 12.64003906 8.32898438 11.92460937 7.6875 11.1875 C7.07261719 10.47980469 6.45773438 9.77210938 5.82421875 9.04296875 C4.06875464 7.02539174 4.06875464 7.02539174 2.3125 5.375 C0.69306938 3.67845363 0.3931913 2.28050956 0 0 Z " fill="#44CCCF" transform="translate(214,139)"/>
<path d="M0 0 C1.32 0 2.64 0 4 0 C3.74379316 1.6065676 3.46944129 3.2102483 3.1875 4.8125 C3.03667969 5.70582031 2.88585937 6.59914062 2.73046875 7.51953125 C1.94604607 10.18321256 1.11372201 11.25690322 -1 13 C-2.12758089 9.61725734 -1.81750262 8.23221777 -1.0625 4.8125 C-0.86785156 3.91144531 -0.67320312 3.01039063 -0.47265625 2.08203125 C-0.23869141 1.05142578 -0.23869141 1.05142578 0 0 Z " fill="#59D2D5" transform="translate(471,234)"/>
<path d="M0 0 C-0.33 1.32 -0.66 2.64 -1 4 C-7.435 4.495 -7.435 4.495 -14 5 C-14 4.01 -14 3.02 -14 2 C-12.04200486 1.66468585 -10.08359226 1.33180857 -8.125 1 C-6.48917969 0.7215625 -6.48917969 0.7215625 -4.8203125 0.4375 C-2 0 -2 0 0 0 Z M-8 2 C-8 2.33 -8 2.66 -8 3 C-6.35 3 -4.7 3 -3 3 C-3 2.67 -3 2.34 -3 2 C-4.65 2 -6.3 2 -8 2 Z " fill="#C5DF8F" transform="translate(275,439)"/>
<path d="M0 0 C0.33 0 0.66 0 1 0 C0.85936865 2.29199177 0.71234057 4.58359186 0.5625 6.875 C0.48128906 8.15117187 0.40007813 9.42734375 0.31640625 10.7421875 C0 14 0 14 -1 16 C-1.99 16 -2.98 16 -4 16 C-3.71515154 14.26969709 -3.42180062 12.54079286 -3.125 10.8125 C-2.96257813 9.84957031 -2.80015625 8.88664063 -2.6328125 7.89453125 C-2.01960483 5.08967396 -1.14333657 2.62775253 0 0 Z " fill="#C4DB8E" transform="translate(44,211)"/>
<path d="M0 0 C2.04119788 1.61594832 4.04072937 3.2856382 6 5 C6 5.66 6 6.32 6 7 C4.8553125 6.9690625 4.8553125 6.9690625 3.6875 6.9375 C0.89814214 6.87057159 0.89814214 6.87057159 -2 8 C-2 7.34 -2 6.68 -2 6 C-2.66 6 -3.32 6 -4 6 C-4 5.34 -4 4.68 -4 4 C-3.01 3.67 -2.02 3.34 -1 3 C-0.67 2.01 -0.34 1.02 0 0 Z " fill="#BBD477" transform="translate(406,139)"/>
<path d="M0 0 C0.33 0.66 0.66 1.32 1 2 C-0.66666667 3.66666667 -2.33333333 5.33333333 -4 7 C-4.86625 7.9075 -5.7325 8.815 -6.625 9.75 C-9 12 -9 12 -12 13 C-12 12.34 -12 11.68 -12 11 C-11.34 11 -10.68 11 -10 11 C-9.896875 10.360625 -9.79375 9.72125 -9.6875 9.0625 C-9.460625 8.381875 -9.23375 7.70125 -9 7 C-8.01 6.67 -7.02 6.34 -6 6 C-4.29319053 4.37446717 -2.62339805 2.70884005 -1 1 C-0.67 0.67 -0.34 0.34 0 0 Z " fill="#CCEC93" transform="translate(391,395)"/>
<path d="M0 0 C0.33 0.66 0.66 1.32 1 2 C0.34 2 -0.32 2 -1 2 C-1 3.32 -1 4.64 -1 6 C-1.78375 6.61875 -2.5675 7.2375 -3.375 7.875 C-6.46305339 10.37485275 -7.05246227 12.2098491 -8 16 C-8.66 15.67 -9.32 15.34 -10 15 C-9.25 9.25 -9.25 9.25 -7 7 C-6.175 5.989375 -5.35 4.97875 -4.5 3.9375 C-2 1 -2 1 0 0 Z " fill="#7CE2E2" transform="translate(292,300)"/>
<path d="M0 0 C0.66 0 1.32 0 2 0 C2 2.31 2 4.62 2 7 C0.73160474 7.50615298 -0.53983102 8.00469099 -1.8125 8.5 C-2.52019531 8.7784375 -3.22789062 9.056875 -3.95703125 9.34375 C-6 10 -6 10 -9 10 C-9 9.34 -9 8.68 -9 8 C-7.329375 7.4121875 -7.329375 7.4121875 -5.625 6.8125 C-2.68039334 5.57517033 -2.14117455 5.26393503 -0.5625 2.3125 C-0.376875 1.549375 -0.19125 0.78625 0 0 Z " fill="#5BCFD0" transform="translate(454,210)"/>
<path d="M0 0 C2.33333333 0.33333333 4.66666667 0.66666667 7 1 C8.8871875 1.185625 8.8871875 1.185625 10.8125 1.375 C12.3903125 1.684375 12.3903125 1.684375 14 2 C14.99 3.485 14.99 3.485 16 5 C9.25 6 9.25 6 7 6 C6.54625 5.525625 6.0925 5.05125 5.625 4.5625 C3.77022513 2.77906263 2.49864408 2.4308007 0 2 C0 1.34 0 0.68 0 0 Z M10 4 C14 5 14 5 14 5 Z " fill="#83DDD6" transform="translate(324,293)"/>
<path d="M0 0 C0.66 0 1.32 0 2 0 C1.875 1.75 1.875 1.75 1 4 C-1.875 6.125 -1.875 6.125 -5 8 C-5.99 8.66 -6.98 9.32 -8 10 C-7.6875 7.125 -7.6875 7.125 -7 4 C-4 2 -4 2 -1 2 C-0.67 1.34 -0.34 0.68 0 0 Z " fill="#42CDCA" transform="translate(455,264)"/>
<path d="M0 0 C-3.42232972 1.14077657 -6.08673217 1.09815117 -9.6875 1.0625 C-11.45673828 1.04896484 -11.45673828 1.04896484 -13.26171875 1.03515625 C-14.61716797 1.01775391 -14.61716797 1.01775391 -16 1 C-16.66 2.32 -17.32 3.64 -18 5 C-18.66 4.67 -19.32 4.34 -20 4 C-14.14147538 -3.61608201 -8.64908439 -2.82419082 0 0 Z " fill="#49D1CE" transform="translate(451,193)"/>
<path d="M0 0 C4.23443737 -0.35286978 5.73002899 0.4236592 9 3 C10.98014432 3.72351427 12.97821315 4.40265389 15 5 C15 5.33 15 5.66 15 6 C8.6902455 6.65726609 4.95810778 4.92785162 0 1 C0 0.67 0 0.34 0 0 Z " fill="#56CFD7" transform="translate(238,164)"/>
<path d="M0 0 C1.47437939 2.94875877 1.36089509 4.69179497 1 8 C-0.46084563 11.13111319 -2.17570218 14.06809279 -4 17 C-5.45489101 12.52791891 -3.96113639 10.2128115 -2 6 C-1.31163487 4.00736409 -0.63718601 2.00958663 0 0 Z " fill="#CFE397" transform="translate(434,320)"/>
<path d="M0 0 C1.05445313 0.01289063 2.10890625 0.02578125 3.1953125 0.0390625 C5.875 0.375 5.875 0.375 7.875 2.375 C6.55435547 2.46587891 6.55435547 2.46587891 5.20703125 2.55859375 C3.46486328 2.68427734 3.46486328 2.68427734 1.6875 2.8125 C-0.03533203 2.93431641 -0.03533203 2.93431641 -1.79296875 3.05859375 C-4.64098171 3.32903812 -7.33710482 3.75021747 -10.125 4.375 C-6.9384536 0.48033217 -4.98455938 -0.13471782 0 0 Z " fill="#CAE095" transform="translate(426.125,314.625)"/>
<path d="M0 0 C0.99 0 1.98 0 3 0 C7.85939519 6.03743039 7.10948542 11.6501195 6.359375 18.96484375 C6.24078125 19.96644531 6.1221875 20.96804688 6 22 C5.67 22 5.34 22 5 22 C4.95101563 21.11957031 4.90203125 20.23914063 4.8515625 19.33203125 C4.77679688 18.17058594 4.70203125 17.00914062 4.625 15.8125 C4.52058594 14.08966797 4.52058594 14.08966797 4.4140625 12.33203125 C4.02266428 9.18238334 3.22994664 6.89487441 2 4 C2 3.01 2 2.02 2 1 C1.34 0.67 0.68 0.34 0 0 Z " fill="#C1DD82" transform="translate(284,246)"/>
<path d="M0 0 C0.66 0 1.32 0 2 0 C2.33 1.65 2.66 3.3 3 5 C3.66 5 4.32 5 5 5 C5 7.64 5 10.28 5 13 C4.01 13 3.02 13 2 13 C1.34 8.71 0.68 4.42 0 0 Z " fill="#6BDEDC" transform="translate(452,195)"/>
<path d="M0 0 C1.32 0 2.64 0 4 0 C4.6875 2.8125 4.6875 2.8125 5 6 C3.5625 7.875 3.5625 7.875 2 9 C1.01 8.34 0.02 7.68 -1 7 C-0.67 4.69 -0.34 2.38 0 0 Z " fill="#39CBCF" transform="translate(269,57)"/>
<path d="M0 0 C1.18681726 3.56045177 1.09689832 6.43808337 1.0625 10.1875 C1.05347656 11.45980469 1.04445313 12.73210937 1.03515625 14.04296875 C1.02355469 15.01878906 1.01195312 15.99460937 1 17 C-1.77426597 12.83860105 -3.18550101 9.66950912 -2.625 4.625 C-2.41875 3.75875 -2.2125 2.8925 -2 2 C-1.34 2 -0.68 2 0 2 C0 1.34 0 0.68 0 0 Z " fill="#7FDCDD" transform="translate(351,306)"/>
<path d="M0 0 C0 0.66 0 1.32 0 2 C-0.86625 2.268125 -1.7325 2.53625 -2.625 2.8125 C-6.03792202 3.93432818 -6.03792202 3.93432818 -9.25 5.625 C-12 7 -12 7 -14 7 C-14 6.34 -14 5.68 -14 5 C-9.67712094 1.37931449 -5.74627325 -0.71828416 0 0 Z " fill="#6BDDDC" transform="translate(308,293)"/>
<path d="M0 0 C2.475 0.99 2.475 0.99 5 2 C5 2.66 5 3.32 5 4 C5.639375 4.12375 6.27875 4.2475 6.9375 4.375 C7.618125 4.58125 8.29875 4.7875 9 5 C9.33 5.66 9.66 6.32 10 7 C7.03 7 4.06 7 1 7 C0.67 4.69 0.34 2.38 0 0 Z " fill="#54D9DD" transform="translate(274,84)"/>
<path d="M0 0 C3.04594267 0.33843807 4.29909045 1.23791285 6.75 3.1875 C9 6 9 6 9.3125 9.3125 C9.1578125 10.6428125 9.1578125 10.6428125 9 12 C5 7.25 5 7.25 5 5 C2.525 4.01 2.525 4.01 0 3 C0 2.01 0 1.02 0 0 Z " fill="#4BD1D2" transform="translate(303,51)"/>
<path d="M0 0 C0.86625 0.37125 0.86625 0.37125 1.75 0.75 C1.75 1.41 1.75 2.07 1.75 2.75 C1.09 2.75 0.43 2.75 -0.25 2.75 C-0.58 3.74 -0.91 4.73 -1.25 5.75 C-4.25 7.75 -4.25 7.75 -7.25 7.75 C-6.66524269 3.65669884 -4.62230386 -0.51358932 0 0 Z " fill="#C2DC77" transform="translate(345.25,430.25)"/>
<path d="M0 0 C-1.14464115 2.28928231 -2.38821071 3.38544273 -4.3125 5.0625 C-4.90675781 5.58972656 -5.50101562 6.11695313 -6.11328125 6.66015625 C-8.09720875 8.0690323 -9.62333769 8.57503389 -12 9 C-12 8.01 -12 7.02 -12 6 C-11.01 5.67 -10.02 5.34 -9 5 C-9 4.01 -9 3.02 -9 2 C-3.375 0 -3.375 0 0 0 Z " fill="#C7DD89" transform="translate(362,422)"/>
<path d="M0 0 C3.98363358 1.32787786 6.10630834 3.00985195 9 6 C9.99 6.33 10.98 6.66 12 7 C11.67 7.99 11.34 8.98 11 10 C5.43721535 8.6402082 5.43721535 8.6402082 3.25 5.4375 C2.8375 4.633125 2.425 3.82875 2 3 C1.34 2.67 0.68 2.34 0 2 C0 1.34 0 0.68 0 0 Z " fill="#C7E087" transform="translate(116,395)"/>
<path d="M0 0 C1.1875 2.0625 1.1875 2.0625 2 4 C1.34 4.66 0.68 5.32 0 6 C-2.9375 5.25 -2.9375 5.25 -6 4 C-6.875 1.875 -6.875 1.875 -7 0 C-3.98968256 -0.93423645 -3.13349732 -1.04449911 0 0 Z " fill="#34D2D1" transform="translate(393,272)"/>
<path d="M0 0 C0.66 0.33 1.32 0.66 2 1 C2.66796875 3.36328125 2.66796875 3.36328125 3.1875 6.3125 C3.36667969 7.27800781 3.54585938 8.24351562 3.73046875 9.23828125 C3.98575791 11.85407018 3.82606605 13.53351909 3 16 C2.51891725 14.58398286 2.04021859 13.16715563 1.5625 11.75 C1.29566406 10.96109375 1.02882813 10.1721875 0.75390625 9.359375 C-1.14201183 3.4260355 -1.14201183 3.4260355 0 0 Z " fill="#4CCFD0" transform="translate(359,229)"/>
<path d="M0 0 C3.53599998 0.07072 6.1041863 0.19163015 8.80078125 2.625 C10.27675028 4.37220916 11.67266996 6.13784833 13 8 C11.35 8 9.7 8 8 8 C7.79375 7.401875 7.5875 6.80375 7.375 6.1875 C5.49073918 3.18981233 3.18867916 2.38638224 0 1 C0 0.67 0 0.34 0 0 Z " fill="#7ADEE0" transform="translate(313,38)"/>
<path d="M0 0 C3.38818502 1.43605193 5.3186598 3.20466579 7.6875 6 C8.28949219 6.70125 8.89148438 7.4025 9.51171875 8.125 C11 10 11 10 12 12 C7.75153925 11.52794881 5.73180712 9.11122478 3 6 C3 5.34 3 4.68 3 4 C1.68 3.34 0.36 2.68 -1 2 C-0.67 1.34 -0.34 0.68 0 0 Z " fill="#CADF7E" transform="translate(93,395)"/>
<path d="M0 0 C-3.44069624 2.29379749 -4.72290301 3 -9 3 C-9 2.34 -9 1.68 -9 1 C-13.29 1 -17.58 1 -22 1 C-22 0.67 -22 0.34 -22 0 C-19.08365878 -0.19502282 -16.16720455 -0.38129328 -13.25 -0.5625 C-12.0125 -0.64661133 -12.0125 -0.64661133 -10.75 -0.73242188 C-9.95078125 -0.78076172 -9.1515625 -0.82910156 -8.328125 -0.87890625 C-7.5949707 -0.9260376 -6.86181641 -0.97316895 -6.10644531 -1.02172852 C-3.91642774 -0.99913793 -2.09512813 -0.61487456 0 0 Z " fill="#BCD07E" transform="translate(198,372)"/>
<path d="M0 0 C0.99 0 1.98 0 3 0 C4.61208713 2.32140547 5.82822724 4.53753488 6.8125 7.1875 C8.60652174 9.9257437 10.93526809 10.20050472 14 11 C13.67 11.99 13.34 12.98 13 14 C7.17725734 10.34385926 2.15188912 6.84691993 0 0 Z " fill="#CADA8F" transform="translate(155,359)"/>
<path d="M0 0 C1.32 0 2.64 0 4 0 C4 0.66 4 1.32 4 2 C3.360625 2.28875 2.72125 2.5775 2.0625 2.875 C-0.15206079 3.82823451 -0.15206079 3.82823451 -1 6 C-3.32156597 6.40729228 -5.6568787 6.74438677 -8 7 C-7 4 -7 4 -5.125 2.8125 C-3 2 -3 2 0 2 C0 1.34 0 0.68 0 0 Z " fill="#47CCD0" transform="translate(331,360)"/>
<path d="M0 0 C2.5625 2 2.5625 2 5 5 C5.14963532 7.89116824 4.63149193 10.13399816 4 13 C3.01 13 2.02 13 1 13 C0.67 8.71 0.34 4.42 0 0 Z " fill="#BFDC82" transform="translate(45,305)"/>
<path d="M0 0 C1.62490954 -0.02698189 3.24994633 -0.04638757 4.875 -0.0625 C5.77992188 -0.07410156 6.68484375 -0.08570313 7.6171875 -0.09765625 C10 0 10 0 12 1 C12 1.66 12 2.32 12 3 C10.37509046 3.02698189 8.75005367 3.04638757 7.125 3.0625 C5.76761719 3.07990234 5.76761719 3.07990234 4.3828125 3.09765625 C2 3 2 3 0 2 C0 1.34 0 0.68 0 0 Z " fill="#57D5D0" transform="translate(310,292)"/>
<path d="M0 0 C0.33 0.66 0.66 1.32 1 2 C1.99 2 2.98 2 4 2 C3.79503906 2.59167969 3.59007813 3.18335938 3.37890625 3.79296875 C2.0002429 7.83660816 0.68249153 11.76855249 0 16 C-0.33 16 -0.66 16 -1 16 C-1.02692484 13.70839681 -1.04636124 11.41670454 -1.0625 9.125 C-1.07410156 7.84882813 -1.08570313 6.57265625 -1.09765625 5.2578125 C-1 2 -1 2 0 0 Z " fill="#BDD672" transform="translate(61,204)"/>
<path d="M0 0 C1.2065625 0.0309375 1.2065625 0.0309375 2.4375 0.0625 C2.7675 0.7225 3.0975 1.3825 3.4375 2.0625 C1.37787148 2.73798578 -0.68534322 3.40254312 -2.75 4.0625 C-3.89855469 4.43375 -5.04710937 4.805 -6.23046875 5.1875 C-9.20570812 5.96880553 -11.51533896 6.24613306 -14.5625 6.0625 C-14.5625 5.4025 -14.5625 4.7425 -14.5625 4.0625 C-13.85222656 4.01351563 -13.14195312 3.96453125 -12.41015625 3.9140625 C-11.03150391 3.80191406 -11.03150391 3.80191406 -9.625 3.6875 C-8.70847656 3.61789063 -7.79195312 3.54828125 -6.84765625 3.4765625 C-5.71650391 3.27160156 -5.71650391 3.27160156 -4.5625 3.0625 C-4.2325 2.4025 -3.9025 1.7425 -3.5625 1.0625 C-2.5625 0.0625 -2.5625 0.0625 0 0 Z " fill="#77E0DF" transform="translate(263.5625,26.9375)"/>
<path d="M0 0 C0.33 0.99 0.66 1.98 1 3 C-2.29907353 6.29907353 -6.29683373 7.89128726 -10.9375 8.1875 C-11.618125 8.125625 -12.29875 8.06375 -13 8 C-12.67 7.01 -12.34 6.02 -12 5 C-10.95199219 4.83564453 -10.95199219 4.83564453 -9.8828125 4.66796875 C-8.51769531 4.43013672 -8.51769531 4.43013672 -7.125 4.1875 C-5.76761719 3.96126953 -5.76761719 3.96126953 -4.3828125 3.73046875 C-1.65587522 3.16948699 -1.65587522 3.16948699 0 0 Z " fill="#CFE7A0" transform="translate(314,427)"/>
<path d="M0 0 C1.32 0 2.64 0 4 0 C4 2.97 4 5.94 4 9 C3.01 8.67 2.02 8.34 1 8 C-0.07009208 5.17884816 0 3.09455459 0 0 Z " fill="#BAD96B" transform="translate(76,276)"/>
<path d="M0 0 C1.98 0 3.96 0 6 0 C6 0.66 6 1.32 6 2 C6.99 2 7.98 2 9 2 C9.66 3.65 10.32 5.3 11 7 C9.35 6.67 7.7 6.34 6 6 C6 5.01 6 4.02 6 3 C3.03 2.505 3.03 2.505 0 2 C0 1.34 0 0.68 0 0 Z " fill="#C6DD87" transform="translate(273,239)"/>
<path d="M0 0 C2.57343171 1.07918104 4.66603411 2.44402274 7 4 C5.35 4.66 3.7 5.32 2 6 C2 6.66 2 7.32 2 8 C0.68 8 -0.64 8 -2 8 C-2 7.34 -2 6.68 -2 6 C-0.68 5.34 0.64 4.68 2 4 C0.68 3.67 -0.64 3.34 -2 3 C-2 2.34 -2 1.68 -2 1 C-1.34 0.67 -0.68 0.34 0 0 Z " fill="#B2D665" transform="translate(193,158)"/>
<path d="M0 0 C0.825 0.144375 1.65 0.28875 2.5 0.4375 C6.32686278 1.05253152 10.15216707 1.53560637 14 2 C14 2.99 14 3.98 14 5 C8.06 4.01 8.06 4.01 2 3 C2 2.34 2 1.68 2 1 C1.34 0.67 0.68 0.34 0 0 Z " fill="#CCDF94" transform="translate(194,455)"/>
<path d="M0 0 C1.99954746 -0.04254356 4.00041636 -0.04080783 6 0 C6.33 0.33 6.66 0.66 7 1 C8.68183948 1.23287008 10.3712416 1.41264166 12.0625 1.5625 C12.98160156 1.64628906 13.90070313 1.73007812 14.84765625 1.81640625 C15.91306641 1.90728516 15.91306641 1.90728516 17 2 C17 2.33 17 2.66 17 3 C11.39 3 5.78 3 0 3 C0 2.01 0 1.02 0 0 Z " fill="#CFDE92" transform="translate(230,442)"/>
<path d="M0 0 C0.99 0.33 1.98 0.66 3 1 C3 1.66 3 2.32 3 3 C3.66 3 4.32 3 5 3 C5.33 4.32 5.66 5.64 6 7 C6.66 7 7.32 7 8 7 C8.33 8.32 8.66 9.64 9 11 C7.25 10.9375 7.25 10.9375 5 10 C2.71663777 6.90512925 1.21230358 3.63691074 0 0 Z " fill="#C7E194" transform="translate(68,363)"/>
<path d="M0 0 C0.66 0 1.32 0 2 0 C4.28571429 8.42857143 4.28571429 8.42857143 4 13 C3.01 13.495 3.01 13.495 2 14 C1.896875 12.7625 1.79375 11.525 1.6875 10.25 C1.26198318 6.7207134 0.51887408 4.62839034 -2 2 C-1.34 1.34 -0.68 0.68 0 0 Z " fill="#CEE185" transform="translate(151,300)"/>
<path d="M0 0 C0.33 0 0.66 0 1 0 C1.33 1.98 1.66 3.96 2 6 C2.66 6 3.32 6 4 6 C4 7.98 4 9.96 4 12 C2.68 12.33 1.36 12.66 0 13 C0 8.71 0 4.42 0 0 Z " fill="#ACD350" transform="translate(52,270)"/>
<path d="M0 0 C0.99 0 1.98 0 3 0 C3 0.66 3 1.32 3 2 C2.34 2 1.68 2 1 2 C0.896875 3.0725 0.79375 4.145 0.6875 5.25 C0.02599507 8.85820872 -0.57483421 10.36395023 -3 13 C-3.45293073 4.09236234 -3.45293073 4.09236234 0 0 Z " fill="#C8DC81" transform="translate(79,245)"/>
<path d="M0 0 C0.66 0 1.32 0 2 0 C1.48594831 4.96916636 0.76615118 9.29026351 -1 14 C-1.66 13.67 -2.32 13.34 -3 13 C-2.52060632 8.28596212 -2.03165952 4.33420699 0 0 Z " fill="#C3E18E" transform="translate(48,194)"/>
<path d="M0 0 C3.63 0 7.26 0 11 0 C11 0.99 11 1.98 11 3 C8.03 3 5.06 3 2 3 C2 2.34 2 1.68 2 1 C1.34 0.67 0.68 0.34 0 0 Z " fill="#1EC7BB" transform="translate(271,173)"/>
<path d="M0 0 C3.21656415 2.50177211 6.121936 5.121936 9 8 C9.66 8.33 10.32 8.66 11 9 C11 9.66 11 10.32 11 11 C6.38207835 9.50596652 3.4372045 7.35726951 0 4 C0 2.68 0 1.36 0 0 Z " fill="#6BE6E5" transform="translate(360,147)"/>
<path d="M0 0 C-2 3 -2 3 -3.9453125 3.51171875 C-4.66460937 3.56972656 -5.38390625 3.62773437 -6.125 3.6875 C-8.043125 3.8421875 -8.043125 3.8421875 -10 4 C-9.67 3.01 -9.34 2.02 -9 1 C-6.04335481 -0.4783226 -3.25770263 -0.06032783 0 0 Z " fill="#C0DA84" transform="translate(290,455)"/>
<path d="M0 0 C0.33 0.99 0.66 1.98 1 3 C1.66 3 2.32 3 3 3 C3 5.31 3 7.62 3 10 C2.34 10 1.68 10 1 10 C0.67 11.32 0.34 12.64 0 14 C0 9.38 0 4.76 0 0 Z " fill="#B7C752" transform="translate(209,332)"/>
<path d="M0 0 C2.60018816 3.90028225 2.15085514 7.47434569 2 12 C1.01 11.67 0.02 11.34 -1 11 C-1.0270043 9.54176788 -1.04639787 8.08339325 -1.0625 6.625 C-1.07410156 5.81289062 -1.08570313 5.00078125 -1.09765625 4.1640625 C-1 2 -1 2 0 0 Z " fill="#C3D383" transform="translate(57,231)"/>
<path d="M0 0 C2 3 2 3 1.625 6.1875 C1.41875 7.115625 1.2125 8.04375 1 9 C0.34 9 -0.32 9 -1 9 C-1.33 10.65 -1.66 12.3 -2 14 C-2.97919756 10.92449216 -2.98561151 8.97555928 -2.125 5.875 C-1.94195312 5.19179687 -1.75890625 4.50859375 -1.5703125 3.8046875 C-1 2 -1 2 0 0 Z " fill="#CAE58F" transform="translate(56,172)"/>
<path d="M0 0 C0.66 0 1.32 0 2 0 C2.53293835 1.74635165 3.05090663 3.49727652 3.5625 5.25 C3.85253906 6.22453125 4.14257812 7.1990625 4.44140625 8.203125 C4.99249836 10.96243932 4.93789609 12.3912824 4 15 C3.32243118 13.44219668 2.65840543 11.87849904 2 10.3125 C1.62875 9.44238281 1.2575 8.57226562 0.875 7.67578125 C-0.01870488 4.9427998 -0.16449676 2.85299066 0 0 Z " fill="#54D7D4" transform="translate(204,114)"/>
<path d="M0 0 C1.32 0.33 2.64 0.66 4 1 C4.33 3.97 4.66 6.94 5 10 C4.67 9.34 4.34 8.68 4 8 C3.34 8 2.68 8 2 8 C0.23537317 4.91190305 0 3.76687864 0 0 Z " fill="#ADD24E" transform="translate(72,362)"/>
<path d="M0 0 C2.97 0 5.94 0 9 0 C8.67 0.99 8.34 1.98 8 3 C4.7 3 1.4 3 -2 3 C-1.34 2.67 -0.68 2.34 0 2 C0 1.34 0 0.68 0 0 Z " fill="#19CBC2" transform="translate(414,164)"/>
<path d="M0 0 C-0.61875 0.0825 -1.2375 0.165 -1.875 0.25 C-4.18437567 0.81258459 -4.18437567 0.81258459 -5.25 3.0625 C-5.4975 3.701875 -5.745 4.34125 -6 5 C-7.98 5 -9.96 5 -12 5 C-12.33 4.34 -12.66 3.68 -13 3 C-8.47774754 1.16665441 -4.91831697 -0.13292749 0 0 Z " fill="#D0E394" transform="translate(156,76)"/>
<path d="M0 0 C2.97 0.99 5.94 1.98 9 3 C9 3.66 9 4.32 9 5 C6.36 5 3.72 5 1 5 C0.67 3.35 0.34 1.7 0 0 Z " fill="#C8E08D" transform="translate(185,433)"/>
<path d="M0 0 C0.33 0.66 0.66 1.32 1 2 C0.34 2 -0.32 2 -1 2 C-1.28875 2.763125 -1.5775 3.52625 -1.875 4.3125 C-3 7 -3 7 -5 10 C-5.99 10 -6.98 10 -8 10 C-8.33 10.66 -8.66 11.32 -9 12 C-8.42267934 8.65154016 -7.51363917 7.24432069 -5 5 C-4.113125 4.113125 -3.22625 3.22625 -2.3125 2.3125 C-1.549375 1.549375 -0.78625 0.78625 0 0 Z " fill="#DAEAAE" transform="translate(393,366)"/>
<path d="M0 0 C0.66 0 1.32 0 2 0 C2.05391993 1.79133978 2.09275571 3.58313899 2.125 5.375 C2.14820313 6.37273437 2.17140625 7.37046875 2.1953125 8.3984375 C2 11 2 11 0 13 C-1.0161692 8.37078475 -0.83796731 4.65537393 0 0 Z " fill="#45CFCB" transform="translate(360,204)"/>
<path d="M0 0 C1.13016601 5.02296004 0.77916092 8.97874074 0 14 C-0.33 14 -0.66 14 -1 14 C-1.13277344 13.38511719 -1.26554687 12.77023438 -1.40234375 12.13671875 C-1.57894531 11.32847656 -1.75554687 10.52023438 -1.9375 9.6875 C-2.11152344 8.88699219 -2.28554688 8.08648437 -2.46484375 7.26171875 C-2.99886159 4.854599 -2.99886159 4.854599 -4 2 C-1 0 -1 0 0 0 Z " fill="#44DFD3" transform="translate(368,173)"/>
<path d="M0 0 C0.66 0 1.32 0 2 0 C2.27429625 5.39449293 2.36055646 8.51925805 -1 13 C-2.12758089 9.61725734 -1.81750262 8.23221777 -1.0625 4.8125 C-0.86785156 3.91144531 -0.67320312 3.01039062 -0.47265625 2.08203125 C-0.23869141 1.05142578 -0.23869141 1.05142578 0 0 Z " fill="#CEDC55" transform="translate(159,80)"/>
<path d="M0 0 C1.98 0 3.96 0 6 0 C6 0.99 6 1.98 6 3 C3.69 3.33 1.38 3.66 -1 4 C-0.67 2.68 -0.34 1.36 0 0 Z " fill="#D5E590" transform="translate(249,442)"/>
<path d="M0 0 C0.33 0 0.66 0 1 0 C1 1.65 1 3.3 1 5 C-1.40545638 6.20272819 -2.94996953 6.10071472 -5.625 6.0625 C-6.85089844 6.04896484 -6.85089844 6.04896484 -8.1015625 6.03515625 C-9.04128906 6.01775391 -9.04128906 6.01775391 -10 6 C-10 5.67 -10 5.34 -10 5 C-8.906875 4.731875 -7.81375 4.46375 -6.6875 4.1875 C-3.32496921 3.1046511 -2.13914407 2.61450942 0 0 Z " fill="#5AEAEC" transform="translate(321,311)"/>
<path d="M0 0 C2.29633824 3.44450737 2.54016485 5.93812283 3 10 C2.01 10.495 2.01 10.495 1 11 C-2 5.375 -2 5.375 -2 2 C-1.34 2 -0.68 2 0 2 C0 1.34 0 0.68 0 0 Z " fill="#CADD7F" transform="translate(65,310)"/>
<path d="M0 0 C0 3.3 0 6.6 0 10 C-0.99 10.495 -0.99 10.495 -2 11 C-2.66 10.67 -3.32 10.34 -4 10 C-3.88637738 8.5199159 -3.75877092 7.04089926 -3.625 5.5625 C-3.55539063 4.73878906 -3.48578125 3.91507813 -3.4140625 3.06640625 C-3.27742188 2.38449219 -3.14078125 1.70257813 -3 1 C-1 0 -1 0 0 0 Z M-3 7 C-2 9 -2 9 -2 9 Z " fill="#C4D78F" transform="translate(42,229)"/>
<path d="M0 0 C4.19360449 0.67097672 7.40334352 2.8558394 11 5 C11 5.33 11 5.66 11 6 C7.36029133 6.42820102 5.95430537 5.97413512 2.6875 4.125 C1.800625 3.42375 0.91375 2.7225 0 2 C0 1.34 0 0.68 0 0 Z " fill="#C9E38B" transform="translate(217,232)"/>
<path d="M0 0 C0.66 0 1.32 0 2 0 C2 3.63 2 7.26 2 11 C1.34 11 0.68 11 0 11 C-1.05404945 7.01803543 -0.84098656 4.01804691 0 0 Z " fill="#10ABA4" transform="translate(350,98)"/>
<path d="M0 0 C0.66 0 1.32 0 2 0 C3.23621824 2.47243647 2.98408601 3.77317939 2.6875 6.5 C2.60886719 7.2940625 2.53023438 8.088125 2.44921875 8.90625 C2 11 2 11 0 13 C0 8.71 0 4.42 0 0 Z " fill="#4BD5D1" transform="translate(313,67)"/>
<path d="M0 0 C0.66 0.33 1.32 0.66 2 1 C2 4 2 4 0.75 5.4375 C0.1725 5.953125 -0.405 6.46875 -1 7 C-1.721875 7.721875 -2.44375 8.44375 -3.1875 9.1875 C-4.0846875 10.0846875 -4.0846875 10.0846875 -5 11 C-3.92289822 6.69159287 -2.96052484 3.36423277 0 0 Z " fill="#63D9DC" transform="translate(218,54)"/>
<path d="M0 0 C3.63 0.33 7.26 0.66 11 1 C11.33 1.99 11.66 2.98 12 4 C7.12335991 4.34833144 4.22949995 3.41685712 0 1 C0 0.67 0 0.34 0 0 Z " fill="#C9DB94" transform="translate(172,431)"/>
<path d="M0 0 C0.99 0.33 1.98 0.66 3 1 C2.0409375 2.1446875 2.0409375 2.1446875 1.0625 3.3125 C-1.14232781 5.88246713 -1.14232781 5.88246713 -2 9 C-2.66 8.67 -3.32 8.34 -4 8 C-4 6.35 -4 4.7 -4 3 C-2.68 2.67 -1.36 2.34 0 2 C0 1.34 0 0.68 0 0 Z " fill="#C4DE94" transform="translate(415,362)"/>
<path d="M0 0 C0.99 0 1.98 0 3 0 C3.70226141 1.24176695 4.38629109 2.49385599 5.0625 3.75 C5.44535156 4.44609375 5.82820313 5.1421875 6.22265625 5.859375 C7.1312406 8.36140628 6.88336837 9.5332355 6 12 C4 8 2 4 0 0 Z " fill="#C9DD92" transform="translate(57,344)"/>
<path d="M0 0 C0.66 0.33 1.32 0.66 2 1 C1.5020163 4.73487777 1.12508244 6.81237635 -1 10 C-1.66 10 -2.32 10 -3 10 C-2.05066101 6.64566891 -1.10251165 3.30753495 0 0 Z " fill="#CCE38E" transform="translate(427,338)"/>
<path d="M0 0 C2.27183419 2.46115371 2.9736202 3.73620199 3.3125 7.125 C3 10 3 10 1 12 C0.03929566 9.11788698 -0.10581883 7.30149956 -0.0625 4.3125 C-0.05347656 3.50425781 -0.04445312 2.69601562 -0.03515625 1.86328125 C-0.02355469 1.24839844 -0.01195312 0.63351562 0 0 Z " fill="#A8C068" transform="translate(56,272)"/>
<path d="M0 0 C0.33 0 0.66 0 1 0 C0.67 2.97 0.34 5.94 0 9 C-0.99 9.33 -1.98 9.66 -3 10 C-2.25 3.375 -2.25 3.375 0 0 Z " fill="#BBE085" transform="translate(79,134)"/>
<path d="M0 0 C2.76262553 0.3810518 3.84143894 0.83597132 5.8125 2.875 C6.204375 3.57625 6.59625 4.2775 7 5 C6.67 5.99 6.34 6.98 6 8 C5.401875 7.38125 4.80375 6.7625 4.1875 6.125 C1.99188856 3.86323046 1.99188856 3.86323046 -1 2 C-0.67 1.34 -0.34 0.68 0 0 Z " fill="#D6E494" transform="translate(392,122)"/>
<path d="M0 0 C0.99 0.33 1.98 0.66 3 1 C3 3.97 3 6.94 3 10 C2.01 10 1.02 10 0 10 C0 6.7 0 3.4 0 0 Z " fill="#7DD8D6" transform="translate(269,67)"/>
<path d="M0 0 C2.97 0 5.94 0 9 0 C8.67 1.65 8.34 3.3 8 5 C5.04590299 3.62845496 2.55991624 2.01136276 0 0 Z " fill="#C0DB7E" transform="translate(148,438)"/>
<path d="M0 0 C3.4375 0.8125 3.4375 0.8125 7 2 C7.33 2.99 7.66 3.98 8 5 C4.7 4.67 1.4 4.34 -2 4 C-1.34 2.68 -0.68 1.36 0 0 Z " fill="#C3DE89" transform="translate(130,407)"/>
<path d="M0 0 C0.99 0 1.98 0 3 0 C2.6875 3.375 2.6875 3.375 2 7 C1.01 7.66 0.02 8.32 -1 9 C-0.67 6.03 -0.34 3.06 0 0 Z " fill="#B4CF7E" transform="translate(209,352)"/>
<path d="M0 0 C0.33 0 0.66 0 1 0 C1.33 3.3 1.66 6.6 2 10 C1.01 9.67 0.02 9.34 -1 9 C-1.625 5.625 -1.625 5.625 -2 2 C-1.34 1.34 -0.68 0.68 0 0 Z " fill="#C5D87C" transform="translate(43,291)"/>
<path d="M0 0 C0.33 0.99 0.66 1.98 1 3 C-4.5 7 -4.5 7 -9 7 C-9 6.34 -9 5.68 -9 5 C-7.02 4.67 -5.04 4.34 -3 4 C-2.67 3.01 -2.34 2.02 -2 1 C-1.34 0.67 -0.68 0.34 0 0 Z " fill="#D2DF7E" transform="translate(283,286)"/>
<path d="M0 0 C3.96 1.98 3.96 1.98 8 4 C8 4.66 8 5.32 8 6 C6.68 6 5.36 6 4 6 C4 5.34 4 4.68 4 4 C2.68 4 1.36 4 0 4 C0 2.68 0 1.36 0 0 Z " fill="#5CD8D5" transform="translate(430,214)"/>
<path d="M0 0 C0.99 0.33 1.98 0.66 3 1 C2.01 3.97 1.02 6.94 0 10 C-0.99 10 -1.98 10 -3 10 C-3 9.34 -3 8.68 -3 8 C-2.34 8 -1.68 8 -1 8 C-0.67 5.36 -0.34 2.72 0 0 Z " fill="#C4D980" transform="translate(74,173)"/>
<path d="M0 0 C0.66 0.33 1.32 0.66 2 1 C-3.14285714 7.57142857 -3.14285714 7.57142857 -7 9 C-5.25 4.125 -5.25 4.125 -3 3 C-1.9805881 2.01979625 -0.97753644 1.02196992 0 0 Z " fill="#D8E9AB" transform="translate(105,107)"/>
<path d="M0 0 C0.66 0.33 1.32 0.66 2 1 C-2.14285714 7.42857143 -2.14285714 7.42857143 -5 10 C-5.66 9.67 -6.32 9.34 -7 9 C-5.6875 6.0625 -5.6875 6.0625 -4 3 C-3.01 2.67 -2.02 2.34 -1 2 C-0.67 1.34 -0.34 0.68 0 0 Z " fill="#C6DC88" transform="translate(369,392)"/>
<path d="M0 0 C3.96 0 7.92 0 12 0 C12 0.66 12 1.32 12 2 C7.48281619 3.36884358 4.41225737 2.47075246 0 1 C0 0.67 0 0.34 0 0 Z " fill="#30CDC5" transform="translate(422,278)"/>
<path d="M0 0 C0.33 0.66 0.66 1.32 1 2 C-0.24176695 2.70226141 -1.49385599 3.38629109 -2.75 4.0625 C-3.79414062 4.63677734 -3.79414062 4.63677734 -4.859375 5.22265625 C-7.36140628 6.1312406 -8.5332355 5.88336837 -11 5 C-10.34 5 -9.68 5 -9 5 C-9 4.34 -9 3.68 -9 3 C-6.03 2.01 -3.06 1.02 0 0 Z " fill="#CBDF9B" transform="translate(92,238)"/>
<path d="M0 0 C0.66 1.32 1.32 2.64 2 4 C2.99 3.67 3.98 3.34 5 3 C4.67 3.99 4.34 4.98 4 6 C3.34 6 2.68 6 2 6 C1.67 6.99 1.34 7.98 1 9 C-1 6 -1 6 -1 3 C-0.67 2.01 -0.34 1.02 0 0 Z " fill="#4ED3D9" transform="translate(363,196)"/>
<path d="M0 0 C0.33 0 0.66 0 1 0 C1.33 1.98 1.66 3.96 2 6 C1.34 6 0.68 6 0 6 C0 6.99 0 7.98 0 9 C-0.66 9 -1.32 9 -2 9 C-2.6875 7.3125 -2.6875 7.3125 -3 5 C-1.625 2.25 -1.625 2.25 0 0 Z " fill="#5FE1E4" transform="translate(367,189)"/>
<path d="M0 0 C-2.3500189 2.72107452 -4.55674975 3.96702492 -8 5 C-8.99 4.67 -9.98 4.34 -11 4 C-9.73760288 3.13341385 -8.46472499 2.28207941 -7.1875 1.4375 C-6.47980469 0.96183594 -5.77210938 0.48617187 -5.04296875 -0.00390625 C-3 -1 -3 -1 0 0 Z " fill="#BADE8A" transform="translate(153,96)"/>
<path d="M0 0 C0 3 0 3 -1.53125 4.82421875 C-2.1809375 5.43910156 -2.830625 6.05398437 -3.5 6.6875 C-4.1496875 7.31011719 -4.799375 7.93273438 -5.46875 8.57421875 C-5.9740625 9.04472656 -6.479375 9.51523437 -7 10 C-7.66 9.34 -8.32 8.68 -9 8 C-2 1 -2 1 0 0 Z " fill="#6EDDDC" transform="translate(228,45)"/>
<path d="M0 0 C0 1.32 0 2.64 0 4 C-2.31 4.33 -4.62 4.66 -7 5 C-7 4.01 -7 3.02 -7 2 C-2.25 0 -2.25 0 0 0 Z " fill="#BCD47D" transform="translate(300,433)"/>
<path d="M0 0 C0.99 0 1.98 0 3 0 C5.125 7.625 5.125 7.625 4 11 C3.32880451 9.5437455 2.66318193 8.08492133 2 6.625 C1.62875 5.81289063 1.2575 5.00078125 0.875 4.1640625 C0 2 0 2 0 0 Z " fill="#D8EDB3" transform="translate(71,331)"/>
<path d="M0 0 C1.32 0 2.64 0 4 0 C4 2.31 4 4.62 4 7 C3.01 6.67 2.02 6.34 1 6 C0.67 4.02 0.34 2.04 0 0 Z " fill="#CAE097" transform="translate(47,319)"/>
<path d="M0 0 C0.99 0.33 1.98 0.66 3 1 C2.33333333 4.33333333 1.66666667 7.66666667 1 11 C0.67 11 0.34 11 0 11 C0 7.37 0 3.74 0 0 Z " fill="#DAE7AF" transform="translate(210,308)"/>
<path d="M0 0 C0.66 0.66 1.32 1.32 2 2 C1.625 5.125 1.625 5.125 1 8 C0.01 8 -0.98 8 -2 8 C-2.6875 5.6875 -2.6875 5.6875 -3 3 C-1.5625 1.1875 -1.5625 1.1875 0 0 Z " fill="#73E4E7" transform="translate(306,303)"/>
<path d="M0 0 C0.66 0.33 1.32 0.66 2 1 C2.33 0.67 2.66 0.34 3 0 C3.66 1.32 4.32 2.64 5 4 C1.86650268 5.04449911 1.01031744 4.93423645 -2 4 C-1.34 2.68 -0.68 1.36 0 0 Z " fill="#33BFBD" transform="translate(340,294)"/>
<path d="M0 0 C4.75 0.75 4.75 0.75 7 3 C7 3.99 7 4.98 7 6 C2.32307692 4.52307692 2.32307692 4.52307692 0.6875 1.875 C0.460625 1.25625 0.23375 0.6375 0 0 Z " fill="#4BCBCD" transform="translate(361,246)"/>
<path d="M0 0 C6.93 0 13.86 0 21 0 C21 0.33 21 0.66 21 1 C14.07 1 7.14 1 0 1 C0 0.67 0 0.34 0 0 Z " fill="#A9D454" transform="translate(172,157)"/>
<path d="M0 0 C4.1424367 1.38081223 5.32203099 3.59825558 8 7 C7.67 7.66 7.34 8.32 7 9 C1.21538462 4.56923077 1.21538462 4.56923077 0.125 1.6875 C0.08375 1.130625 0.0425 0.57375 0 0 Z " fill="#97DCDC" transform="translate(349,137)"/>
<path d="M0 0 C0.66 0 1.32 0 2 0 C3.6875 2.3125 3.6875 2.3125 5 5 C4.67 5.99 4.34 6.98 4 8 C3.34 7.67 2.68 7.34 2 7 C2 6.34 2 5.68 2 5 C1.34 5 0.68 5 0 5 C0 3.35 0 1.7 0 0 Z " fill="#65CACA" transform="translate(339,62)"/>
<path d="M0 0 C3.63 0.66 7.26 1.32 11 2 C8 4 8 4 5.5 3.6875 C3.65095738 3.17901328 1.81927613 2.60642538 0 2 C0 1.34 0 0.68 0 0 Z " fill="#CDE494" transform="translate(179,451)"/>
<path d="M0 0 C6.625 0.625 6.625 0.625 10 4 C6.7 3.34 3.4 2.68 0 2 C0 1.34 0 0.68 0 0 Z " fill="#CFE28A" transform="translate(161,444)"/>
<path d="M0 0 C-3.20380017 2.13586678 -4.01939967 2.23132175 -7.6875 2.125 C-8.89986328 2.09792969 -8.89986328 2.09792969 -10.13671875 2.0703125 C-11.05904297 2.03550781 -11.05904297 2.03550781 -12 2 C-7.66032699 -0.21504143 -4.80574417 -1.54470348 0 0 Z " fill="#C7DA95" transform="translate(289,439)"/>
<path d="M0 0 C2.31 0 4.62 0 7 0 C7 1.32 7 2.64 7 4 C4.03 3.505 4.03 3.505 1 3 C0.67 2.01 0.34 1.02 0 0 Z " fill="#52CECE" transform="translate(300,363)"/>
<path d="M0 0 C2.28062828 3.42094242 2.21925007 4.68187222 2.125 8.6875 C2.10695313 9.68136719 2.08890625 10.67523438 2.0703125 11.69921875 C2.03550781 12.83810547 2.03550781 12.83810547 2 14 C1.67 14 1.34 14 1 14 C0.8046875 11.94921875 0.609375 9.8984375 0.4140625 7.84765625 C0.27742188 7.23792969 0.14078125 6.62820313 0 6 C-0.66 5.67 -1.32 5.34 -2 5 C-2 4.34 -2 3.68 -2 3 C-1.34 3 -0.68 3 0 3 C0 2.01 0 1.02 0 0 Z " fill="#B8DA8B" transform="translate(40,274)"/>
<path d="M0 0 C-2 2 -4 4 -6 6 C-6.66 5.67 -7.32 5.34 -8 5 C-7.67 3.35 -7.34 1.7 -7 0 C-3.98968256 -0.93423645 -3.13349732 -1.04449911 0 0 Z " fill="#5DDEDF" transform="translate(466,257)"/>
<path d="M0 0 C0.33 0 0.66 0 1 0 C1 6.6 1 13.2 1 20 C0.67 20 0.34 20 0 20 C0 13.4 0 6.8 0 0 Z " fill="#FFFF00" transform="translate(291,256)"/>
<path d="M0 0 C0.66 0 1.32 0 2 0 C2.33 0.66 2.66 1.32 3 2 C3.9590625 2.1546875 3.9590625 2.1546875 4.9375 2.3125 C5.618125 2.539375 6.29875 2.76625 7 3 C8.25 5.5625 8.25 5.5625 9 8 C4.41173718 6.06273348 2.19471406 4.51135667 0 0 Z " fill="#5ED6E1" transform="translate(226,154)"/>
<path d="M0 0 C0.66 0.33 1.32 0.66 2 1 C0.7934375 1.37125 0.7934375 1.37125 -0.4375 1.75 C-3.171081 2.72238859 -3.171081 2.72238859 -3.8125 5.125 C-3.9053125 6.053125 -3.9053125 6.053125 -4 7 C-4.99 6.67 -5.98 6.34 -7 6 C-6 3 -6 3 -3.0625 1.25 C-2.051875 0.8375 -1.04125 0.425 0 0 Z " fill="#E3EFA6" transform="translate(114,100)"/>
<path d="M0 0 C1.65 0 3.3 0 5 0 C5.33 1.65 5.66 3.3 6 5 C5.01 5 4.02 5 3 5 C1.3125 2.5 1.3125 2.5 0 0 Z " fill="#BBD47A" transform="translate(107,409)"/>
<path d="M0 0 C1.65 0.33 3.3 0.66 5 1 C3.35 2.98 1.7 4.96 0 7 C-0.93423645 3.98968256 -1.04449911 3.13349732 0 0 Z " fill="#48DED4" transform="translate(340,353)"/>
<path d="M0 0 C1 3 1 3 0.25 5.625 C-1 8 -1 8 -4 9 C-3.125 4.25 -3.125 4.25 -2 2 C-1.34 2 -0.68 2 0 2 C0 1.34 0 0.68 0 0 Z " fill="#52D1D2" transform="translate(348,344)"/>
<path d="M0 0 C4.12751449 0.60698743 7.3321148 2.03810791 11 4 C8.23382717 5.38308641 6.92591209 4.90563946 4 4 C1.6875 1.9375 1.6875 1.9375 0 0 Z " fill="#CBE29E" transform="translate(81,288)"/>
<path d="M0 0 C0.66 0.99 1.32 1.98 2 3 C1.15955106 6.43183318 0.51471866 8.48528134 -2 11 C-1.125 3.375 -1.125 3.375 0 0 Z " fill="#BCD884" transform="translate(289,273)"/>
<path d="M0 0 C2.97 0.495 2.97 0.495 6 1 C1.25 4.875 1.25 4.875 -1 6 C-0.67 4.02 -0.34 2.04 0 0 Z " fill="#4FDADE" transform="translate(375,274)"/>
<path d="M0 0 C0.99 0.33 1.98 0.66 3 1 C3.185625 2.7015625 3.185625 2.7015625 3.375 4.4375 C3.684375 6.2009375 3.684375 6.2009375 4 8 C4.66 8.33 5.32 8.66 6 9 C5.01 9 4.02 9 3 9 C2.67 7.02 2.34 5.04 2 3 C1.34 3 0.68 3 0 3 C0 2.01 0 1.02 0 0 Z " fill="#4DD4D5" transform="translate(465,192)"/>
<path d="M0 0 C0.99 0 1.98 0 3 0 C3.33 0.66 3.66 1.32 4 2 C5.64363134 2.72159424 7.31050386 3.39351421 9 4 C9 4.33 9 4.66 9 5 C2.25 4.125 2.25 4.125 0 3 C0 2.01 0 1.02 0 0 Z " fill="#6ADBD8" transform="translate(431,166)"/>
<path d="M0 0 C1.875 0.25 1.875 0.25 4 1 C5.25 3.0625 5.25 3.0625 6 5 C4.35 5 2.7 5 1 5 C0.67 3.35 0.34 1.7 0 0 Z " fill="#BBE47D" transform="translate(200,162)"/>
<path d="M0 0 C1.32 0 2.64 0 4 0 C4 0.66 4 1.32 4 2 C4.66 2.33 5.32 2.66 6 3 C5.01 3.66 4.02 4.32 3 5 C3 4.34 3 3.68 3 3 C2.34 3 1.68 3 1 3 C0.67 3.66 0.34 4.32 0 5 C-0.5625 3.0625 -0.5625 3.0625 -1 1 C-0.67 0.67 -0.34 0.34 0 0 Z " fill="#A7D154" transform="translate(91,142)"/>
<path d="M0 0 C0.99928333 2.698065 1.03624754 3.88010429 0.1875 6.6875 C-1 9 -1 9 -3 10 C-2.67 7.36 -2.34 4.72 -2 2 C-1.34 2 -0.68 2 0 2 C0 1.34 0 0.68 0 0 Z " fill="#5DD5D4" transform="translate(210,68)"/>
<path d="M0 0 C-1 3 -1 3 -4 5 C-4.99 5 -5.98 5 -7 5 C-5.22678182 1.07358831 -4.52021524 0 0 0 Z " fill="#72DCE2" transform="translate(236,40)"/>
<path d="M0 0 C0.66 0.33 1.32 0.66 2 1 C2 1.66 2 2.32 2 3 C-0.375 4.6875 -0.375 4.6875 -3 6 C-3.66 5.67 -4.32 5.34 -5 5 C-3.35 3.35 -1.7 1.7 0 0 Z " fill="#D1E5A4" transform="translate(334,417)"/>
<path d="M0 0 C0.33 1.32 0.66 2.64 1 4 C-0.32 4.99 -1.64 5.98 -3 7 C-3 5.02 -3 3.04 -3 1 C-2.01 0.67 -1.02 0.34 0 0 Z " fill="#4CD9D9" transform="translate(357,297)"/>
<path d="M0 0 C0.66 0.33 1.32 0.66 2 1 C1.45773019 4.79588866 -0.20127563 6.47211993 -3 9 C-3 7.68 -3 6.36 -3 5 C-2.34 5 -1.68 5 -1 5 C-0.67 3.35 -0.34 1.7 0 0 Z " fill="#B6D566" transform="translate(55,181)"/>
<path d="M0 0 C1.98 0 3.96 0 6 0 C4.25 2 4.25 2 2 4 C0.68 4 -0.64 4 -2 4 C-1.34 2.68 -0.68 1.36 0 0 Z " fill="#5ECCCD" transform="translate(294,170)"/>
<path d="M0 0 C0.99 0 1.98 0 3 0 C1.95125002 2.62187494 1.35068687 3.79371361 -1.125 5.25 C-1.74375 5.4975 -2.3625 5.745 -3 6 C-2.42655063 3.13275314 -2.1385485 2.1385485 0 0 Z " fill="#D4EAAB" transform="translate(95,116)"/>
<path d="M0 0 C2.475 0.99 2.475 0.99 5 2 C2.94766315 4.2477975 1.99332739 5.0022242 -1 6 C-1.042721 4.33388095 -1.04063832 2.66617115 -1 1 C-0.67 0.67 -0.34 0.34 0 0 Z " fill="#C9E188" transform="translate(115,118)"/>
<path d="M0 0 C1.32 0.33 2.64 0.66 4 1 C3.67 1.99 3.34 2.98 3 4 C2.01 3.67 1.02 3.34 0 3 C0 3.66 0 4.32 0 5 C-0.99 5.33 -1.98 5.66 -3 6 C-3 5.34 -3 4.68 -3 4 C-2.34 4 -1.68 4 -1 4 C-0.67 2.68 -0.34 1.36 0 0 Z " fill="#C5DE7E" transform="translate(133,104)"/>
<path d="M0 0 C2.97 0.495 2.97 0.495 6 1 C6.33 1.99 6.66 2.98 7 4 C4.69 4 2.38 4 0 4 C0 2.68 0 1.36 0 0 Z " fill="#D3E680" transform="translate(210,439)"/>
<path d="M0 0 C1.423125 0.9590625 1.423125 0.9590625 2.875 1.9375 C5.75287827 3.92620563 5.75287827 3.92620563 8 5 C4.25 6.125 4.25 6.125 2 5 C2 4.34 2 3.68 2 3 C1.01 2.67 0.02 2.34 -1 2 C-0.67 1.34 -0.34 0.68 0 0 Z " fill="#CBE689" transform="translate(140,412)"/>
<path d="M0 0 C0.99 0 1.98 0 3 0 C2.1875 2.9375 2.1875 2.9375 1 6 C0.01 6.33 -0.98 6.66 -2 7 C-1.34 4.69 -0.68 2.38 0 0 Z " fill="#CDEAA4" transform="translate(419,354)"/>
<path d="M0 0 C0.33 0 0.66 0 1 0 C1.36923077 4.55384615 1.36923077 4.55384615 -0.5 6.8125 C-0.995 7.204375 -1.49 7.59625 -2 8 C-3.125 4.25 -3.125 4.25 -2 2 C-1.34 2 -0.68 2 0 2 C0 1.34 0 0.68 0 0 Z " fill="#D4E9A9" transform="translate(413,329)"/>
<path d="M0 0 C1.98 0.495 1.98 0.495 4 1 C3.67 1.99 3.34 2.98 3 4 C1.68 4 0.36 4 -1 4 C-0.67 2.68 -0.34 1.36 0 0 Z " fill="#48CECE" transform="translate(280,315)"/>
<path d="M0 0 C0.66 0 1.32 0 2 0 C1.67 1.65 1.34 3.3 1 5 C-0.32 5 -1.64 5 -3 5 C-3 4.34 -3 3.68 -3 3 C-2.34 3 -1.68 3 -1 3 C-0.67 2.01 -0.34 1.02 0 0 Z " fill="#45D6DC" transform="translate(423,164)"/>
<path d="M0 0 C1.485 0.99 1.485 0.99 3 2 C3 2.66 3 3.32 3 4 C3.66 4 4.32 4 5 4 C5.33 4.99 5.66 5.98 6 7 C5.01 7 4.02 7 3 7 C0 2.77777778 0 2.77777778 0 0 Z " fill="#C4DD90" transform="translate(382,135)"/>
<path d="M0 0 C0.99 0.33 1.98 0.66 3 1 C2.979375 1.78375 2.95875 2.5675 2.9375 3.375 C2.81315937 5.98114961 2.81315937 5.98114961 4 8 C2.68 7.34 1.36 6.68 0 6 C0 4.02 0 2.04 0 0 Z " fill="#A7D359" transform="translate(387,137)"/>
<path d="M0 0 C0.99 0 1.98 0 3 0 C3.66 2.31 4.32 4.62 5 7 C2.5 5.75 2.5 5.75 0 4 C0 2.68 0 1.36 0 0 Z " fill="#ACD150" transform="translate(361,111)"/>
<path d="M0 0 C-0.66 1.65 -1.32 3.3 -2 5 C-3.65 5 -5.3 5 -7 5 C-2.25 0 -2.25 0 0 0 Z " fill="#77D8DE" transform="translate(306,87)"/>
<path d="M0 0 C0.33 0 0.66 0 1 0 C1 4.95 1 9.9 1 15 C0.67 15 0.34 15 0 15 C0 10.05 0 5.1 0 0 Z " fill="#4BC9DD" transform="translate(357,215)"/>
<path d="M0 0 C1.98 0 3.96 0 6 0 C6 0.33 6 0.66 6 1 C4.02 1 2.04 1 0 1 C0 0.67 0 0.34 0 0 Z " fill="#A4EC91" transform="translate(261,461)"/>
<path d="M0 0 C0.33 0 0.66 0 1 0 C1 1.98 1 3.96 1 6 C0.67 6 0.34 6 0 6 C0 4.02 0 2.04 0 0 Z " fill="#A5CC6C" transform="translate(39,280)"/>
<path d="M0 0 C1.65 0 3.3 0 5 0 C5 0.33 5 0.66 5 1 C3.35 1 1.7 1 0 1 C0 0.67 0 0.34 0 0 Z " fill="#C9DC7E" transform="translate(268,460)"/>
<path d="M0 0 C0.33 0 0.66 0 1 0 C1 1.65 1 3.3 1 5 C0.67 5 0.34 5 0 5 C0 3.35 0 1.7 0 0 Z " fill="#79EF69" transform="translate(59,282)"/>
<path d="M0 0 C1 4 1 4 1 4 Z " fill="#C0FF79" transform="translate(59,230)"/>
<path d="M0 0 C1 4 1 4 1 4 Z " fill="#AEFF1D" transform="translate(60,225)"/>
<path d="M0 0 C1 4 1 4 1 4 Z " fill="#00E1E1" transform="translate(429,204)"/>
<path d="" fill="#91FF4D" transform="translate(0,0)"/>
<path d="" fill="#40D6D6" transform="translate(0,0)"/>
<path d="" fill="#8AC28A" transform="translate(0,0)"/>
<path d="" fill="#AEC775" transform="translate(0,0)"/>
<path d="" fill="#FFFFFF" transform="translate(0,0)"/>
<path d="" fill="#BFFFBF" transform="translate(0,0)"/>
<path d="" fill="#BFFFAD" transform="translate(0,0)"/>
<path d="" fill="#BDFFBD" transform="translate(0,0)"/>
<path d="" fill="#FFFFFF" transform="translate(0,0)"/>
<path d="" fill="#FFFFFF" transform="translate(0,0)"/>
<path d="" fill="#FFFFFF" transform="translate(0,0)"/>
<path d="" fill="#FFFFFF" transform="translate(0,0)"/>
<path d="" fill="#FFFF00" transform="translate(0,0)"/>
<path d="" fill="#00FF00" transform="translate(0,0)"/>
<path d="" fill="#FFFFFF" transform="translate(0,0)"/>
<path d="" fill="#FFFF00" transform="translate(0,0)"/>
<path d="" fill="#FFFFFF" transform="translate(0,0)"/>
<path d="" fill="#80FF80" transform="translate(0,0)"/>
<path d="" fill="#FFFFFF" transform="translate(0,0)"/>
<path d="" fill="#00FFFF" transform="translate(0,0)"/>
<path d="" fill="#FFFFFF" transform="translate(0,0)"/>
<path d="" fill="#FFFF80" transform="translate(0,0)"/>
<path d="" fill="#00FF00" transform="translate(0,0)"/>
<path d="" fill="#FFFF84" transform="translate(0,0)"/>
<path d="" fill="#363600" transform="translate(0,0)"/>
<path d="" fill="#7FFF85" transform="translate(0,0)"/>
<path d="" fill="#00FFFF" transform="translate(0,0)"/>
<path d="" fill="#FFFF80" transform="translate(0,0)"/>
<path d="" fill="#7FFFFF" transform="translate(0,0)"/>
<path d="" fill="#FFFFFF" transform="translate(0,0)"/>
<path d="" fill="#FFFFFF" transform="translate(0,0)"/>
<path d="" fill="#FFFFFF" transform="translate(0,0)"/>
<path d="" fill="#FFFF00" transform="translate(0,0)"/>
<path d="" fill="#00FFFF" transform="translate(0,0)"/>
<path d="" fill="#FFFFFF" transform="translate(0,0)"/>
<path d="" fill="#A5FFA5" transform="translate(0,0)"/>
<path d="" fill="#2AFFFF" transform="translate(0,0)"/>
<path d="" fill="#00FFFF" transform="translate(0,0)"/>
<path d="" fill="#00FFFF" transform="translate(0,0)"/>
<path d="" fill="#E1FFFF" transform="translate(0,0)"/>
<path d="" fill="#00FFFF" transform="translate(0,0)"/>
<path d="" fill="#00FFFF" transform="translate(0,0)"/>
<path d="" fill="#00FFFF" transform="translate(0,0)"/>
<path d="" fill="#00FFFF" transform="translate(0,0)"/>
<path d="" fill="#B5FF5A" transform="translate(0,0)"/>
<path d="" fill="#80FF80" transform="translate(0,0)"/>
<path d="" fill="#80FFFF" transform="translate(0,0)"/>
<path d="" fill="#00FFFF" transform="translate(0,0)"/>
<path d="" fill="#FFFFFF" transform="translate(0,0)"/>
<path d="" fill="#FFFF80" transform="translate(0,0)"/>
<path d="" fill="#FFFF00" transform="translate(0,0)"/>
<path d="" fill="#FFFFFF" transform="translate(0,0)"/>
<path d="" fill="#FFFF7F" transform="translate(0,0)"/>
<path d="" fill="#FFFFFF" transform="translate(0,0)"/>
<path d="" fill="#FFFFFF" transform="translate(0,0)"/>
<path d="" fill="#FFFFFF" transform="translate(0,0)"/>
<path d="" fill="#FFFF80" transform="translate(0,0)"/>
<path d="" fill="#FFFF98" transform="translate(0,0)"/>
<path d="" fill="#00FFFF" transform="translate(0,0)"/>
<path d="" fill="#7FFFFF" transform="translate(0,0)"/>
<path d="" fill="#51A2A2" transform="translate(0,0)"/>
<path d="" fill="#00FFFF" transform="translate(0,0)"/>
<path d="" fill="#00FFFF" transform="translate(0,0)"/>
</svg>
